<?xml version="1.0" encoding="utf-8" standalone="yes"?>
<!DOCTYPE svg PUBLIC "-//W3C//DTD SVG 1.1//EN" "http://www.w3.org/Graphics/SVG/1.1/DTD/svg11.dtd">
<svg style="fill:none;stroke:none;fill-rule:evenodd;clip-rule:evenodd;stroke-linecap:round;stroke-linejoin:round;stroke-miterlimit:1.5;" version="1.1" xmlns="http://www.w3.org/2000/svg" xmlns:xlink="http://www.w3.org/1999/xlink" width="1080" height="600" viewBox="0 0 1080 600"><style class="text-font-style fontImports" data-font-family="Roboto">@import url(https://fonts.googleapis.com/css2?family=Roboto:wght@400;700&amp;amp;display=block);</style><g id="items" style="isolation: isolate"><g id="blend" style="mix-blend-mode: normal"><g id="g-root-cp_1_lines-1_1lws6theihx57-fill" data-item-order="-507692" transform="translate(13.18975830078125, 241.3441162109375)"><g id="cp_1_lines-1_1lws6theihx57-fill-merged" stroke="none" fill="#436aaa" fill-opacity="1"><g><path d="M70.81 34.656 H162.81C165.019 34.656 166.81 36.447 166.81 38.656 V126.656C166.81 128.865 165.019 130.656 162.81 130.656 H70.81 V34.656"></path></g></g><g id="cp_1_lines-1_1lws6theihx57-fill-merged" stroke="none" fill="#436aaa" fill-opacity="1"><g><path d="M10.917 85.204C9.694 83.725 9.694 81.586 10.917 80.107L68.269 10.73C69.463 9.285 71.81 10.13 71.81 12.004 V153.308C71.81 155.182 69.463 156.027 68.269 154.582L10.917 85.204"></path></g></g></g><g id="g-root-cp_2_lines-2_18ly5j9eihvkc-fill" data-item-order="-507680" transform="translate(170, 266)"><g id="cp_2_lines-2_18ly5j9eihvkc-fill-merged" stroke="none" fill="#4c7bc7" fill-opacity="1"><g><path d="M10 14C10 11.791 11.791 10 14 10 H102C104.209 10 106 11.791 106 14 V102C106 104.209 104.209 106 102 106 H14C11.791 106 10 104.209 10 102 V14"></path></g></g></g><g id="g-root-cp_3_lines-3_1464neteihwcl-fill" data-item-order="-507674" transform="translate(266, 266)"><g id="cp_3_lines-3_1464neteihwcl-fill-merged" stroke="none" fill="#4f82d5" fill-opacity="1"><g><path d="M10 14C10 11.791 11.791 10 14 10 H102C104.209 10 106 11.791 106 14 V102C106 104.209 104.209 106 102 106 H14C11.791 106 10 104.209 10 102 V14"></path></g></g></g><g id="g-root-cp_4_lines-4_qvam4leihurq-fill" data-item-order="-507668" transform="translate(362, 266)"><g id="cp_4_lines-4_qvam4leihurq-fill-merged" stroke="none" fill="#4e86e1" fill-opacity="1"><g><path d="M10 14C10 11.791 11.791 10 14 10 H102C104.209 10 106 11.791 106 14 V102C106 104.209 104.209 106 102 106 H14C11.791 106 10 104.209 10 102 V14"></path></g></g></g><g id="g-root-cp_5_lines-5_hznlvpeihvkf-fill" data-item-order="-507662" transform="translate(458, 266)"><g id="cp_5_lines-5_hznlvpeihvkf-fill-merged" stroke="none" fill="#4e8aed" fill-opacity="1"><g><path d="M10 14C10 11.791 11.791 10 14 10 H102C104.209 10 106 11.791 106 14 V102C106 104.209 104.209 106 102 106 H14C11.791 106 10 104.209 10 102 V14"></path></g></g></g><g id="g-root-cp_6_lines-6_dju3r9eihwco-fill" data-item-order="-507656" transform="translate(554, 266)"><g id="cp_6_lines-6_dju3r9eihwco-fill-merged" stroke="none" fill="#4e8ff7" fill-opacity="1"><g><path d="M10 14C10 11.791 11.791 10 14 10 H102C104.209 10 106 11.791 106 14 V102C106 104.209 104.209 106 102 106 H14C11.791 106 10 104.209 10 102 V14"></path></g></g></g><g id="g-root-cp_7_lines-7_902h1eihurt-fill" data-item-order="-507650" transform="translate(650, 266)"><g id="cp_7_lines-7_902h1eihurt-fill-merged" stroke="none" fill="#5797ff" fill-opacity="1"><g><path d="M10 14C10 11.791 11.791 10 14 10 H102C104.209 10 106 11.791 106 14 V102C106 104.209 104.209 106 102 106 H14C11.791 106 10 104.209 10 102 V14"></path></g></g></g><g id="g-root-cp_8_lines-8_1uuambpeihvcy-fill" data-item-order="-507644" transform="translate(746, 266)"><g id="cp_8_lines-8_1uuambpeihvcy-fill-merged" stroke="none" fill="#76aaff" fill-opacity="1"><g><path d="M10 14C10 11.791 11.791 10 14 10 H102C104.209 10 106 11.791 106 14 V102C106 104.209 104.209 106 102 106 H14C11.791 106 10 104.209 10 102 V14"></path></g></g></g><g id="g-root-cp_9_lines-9_1lynm2teihw5n-fill" data-item-order="-507638" transform="translate(842, 241)"><g id="cp_9_lines-9_1lynm2teihw5n-fill-merged" stroke="none" fill="#95bdff" fill-opacity="1"><g><path d="M10 39C10 36.791 11.791 35 14 35 H106 V131 H14C11.791 131 10 129.209 10 127 V39"></path></g></g><g id="cp_9_lines-9_1lynm2teihw5n-fill-merged" stroke="none" fill="#95bdff" fill-opacity="1"><g><path d="M165.893 85.204C167.116 83.725 167.116 81.586 165.893 80.107L108.541 10.73C107.347 9.285 105 10.13 105 12.004 V153.308C105 155.182 107.347 156.027 108.541 154.582L165.893 85.204"></path></g></g></g><g id="g-root-ic_2_1hd7xc5eic9hq-fill" data-item-order="-2304" transform="translate(866, 290)"><g id="ic_2_1hd7xc5eic9hq-fill-merged" stroke="none" fill="#ffffff" fill-opacity="1"><g><path d="M24.77 26.426 V19.676C24.77 14.332 29.102 10 34.446 10C39.79 10 44.122 14.332 44.122 19.676 V26.426C44.122 28.3 43.378 30.098 42.054 31.422C40.978 32.498 40.711 34.141 41.392 35.502L42.188 37.094 H40.24C38.675 35.63 36.611 34.817 34.468 34.82C32.236 34.82 30.208 35.682 28.694 37.094 H26.706L27.502 35.502C28.182 34.142 27.916 32.498 26.84 31.422C25.515 30.097 24.77 28.3 24.77 26.426 M27.67 18.708 H41.228C41.771 18.708 42.215 19.141 42.228 19.684 V20.71C42.252 23.918 39.5 25.482 36.104 25.482 H32.79C29.394 25.482 26.642 23.918 26.642 20.71 V19.68C26.685 19.139 27.128 18.708 27.67 18.708 M16.058 48.742C19.074 48.742 21.519 46.297 21.519 43.281C21.519 40.265 19.074 37.82 16.058 37.82C13.042 37.82 10.597 40.265 10.597 43.281C10.597 46.297 13.042 48.742 16.058 48.742 M21.242 52.476C22.817 53.595 24.004 55.176 24.64 57 H10.46 V52.476C13.688 50.184 18.012 50.184 21.24 52.476 M34.466 48.742C37.482 48.742 39.927 46.297 39.927 43.281C39.927 40.265 37.482 37.82 34.466 37.82C31.45 37.82 29.005 40.265 29.005 43.281C29.005 46.297 31.45 48.742 34.466 48.742 M46.35 43.282C46.35 46.298 48.795 48.743 51.811 48.743C54.827 48.743 57.272 46.298 57.272 43.282C57.272 40.266 54.827 37.821 51.811 37.821C48.795 37.821 46.35 40.266 46.35 43.282 M46.628 52.476C45.066 53.586 43.884 55.15 43.244 56.956C41.925 53.231 38.398 50.745 34.446 50.755C30.495 50.765 26.98 53.268 25.68 57 H57.41 V52.476C54.182 50.183 49.856 50.183 46.628 52.476"></path></g></g></g><g id="g-root-ic_seac_v5hxmtei9gjn-fill" data-item-order="-2304" transform="translate(770, 290)"><g id="ic_seac_v5hxmtei9gjn-fill-merged" stroke="none" fill="#ffffff" fill-opacity="1"><g><path d="M57.42 54.58L52.74 50C53.868 48.321 54.467 46.343 54.46 44.32C54.468 40.175 51.976 36.433 48.148 34.843C44.32 33.253 39.91 34.128 36.979 37.059C34.048 39.99 33.173 44.4 34.763 48.228C36.353 52.056 40.095 54.548 44.24 54.54C46.298 54.54 48.308 53.912 50 52.74L54.66 57.42C55.036 57.799 55.547 58.012 56.08 58.012C56.613 58.012 57.124 57.799 57.5 57.42C57.868 57.034 58.067 56.517 58.052 55.983C58.037 55.45 57.809 54.945 57.42 54.58 M38 44.24C37.992 41.714 39.507 39.433 41.838 38.461C44.169 37.489 46.856 38.018 48.645 39.801C50.434 41.584 50.972 44.269 50.007 46.603C49.042 48.937 46.766 50.46 44.24 50.46C40.802 50.46 38.011 47.678 38 44.24 M35.32 38C35.32 36.895 34.425 36 33.32 36 H26.48C26.25 36.005 26.048 35.846 26 35.62L23.7 25.62C23.64 25.479 23.64 25.321 23.7 25.18C23.798 25.062 23.946 24.995 24.1 25 H50.56C50.884 25.005 51.187 25.16 51.38 25.42C51.568 25.681 51.613 26.019 51.5 26.32L50 30.82C49.658 31.869 50.231 32.997 51.28 33.34C51.479 33.412 51.689 33.446 51.9 33.44C52.781 33.431 53.553 32.846 53.8 32L55.8 26C56.17 24.833 55.961 23.56 55.238 22.572C54.515 21.584 53.364 21 52.14 21 H23.02C22.794 20.991 22.601 20.837 22.54 20.62L20.78 12.98C20.378 11.23 18.816 9.992 17.02 10 H12C10.895 10 10 10.895 10 12C10 13.105 10.895 14 12 14 H16.48C16.718 13.985 16.931 14.147 16.98 14.38L23.7 43.58C23.744 43.788 23.657 44.002 23.48 44.12C22.217 44.951 21.463 46.368 21.48 47.88C21.495 50.079 23.097 51.944 25.268 52.293C27.438 52.641 29.543 51.369 30.245 49.285C30.946 47.201 30.039 44.916 28.1 43.88C27.968 43.82 27.871 43.702 27.84 43.56L27.18 40.68C27.112 40.548 27.112 40.392 27.18 40.26C27.272 40.142 27.41 40.069 27.56 40.06 H33.26C33.811 40.077 34.345 39.865 34.735 39.475C35.125 39.085 35.337 38.551 35.32 38"></path></g></g></g><g id="g-root-ic_gran_4g30jpei81zj-fill" data-item-order="-2304" transform="translate(674, 290)"><g id="ic_gran_4g30jpei81zj-fill-merged" stroke="none" fill="#ffffff" fill-opacity="1"><g><path d="M31.86 46C32.789 45.051 34.062 44.516 35.39 44.516C36.718 44.516 37.991 45.051 38.92 46L41.5 48.56C41.94 48.32 42.38 48.08 42.8 47.8L50 38.22C50.32 37.783 50.712 37.404 51.16 37.1C51.83 35.074 52.168 32.954 52.16 30.82C52.129 19.979 43.466 11.137 32.629 10.883C21.791 10.629 12.724 19.056 12.185 29.883C11.646 40.71 19.831 49.996 30.64 50.82C30.158 49.111 30.623 47.274 31.86 46 M42.36 22.42C43.177 22.379 43.936 22.84 44.277 23.583C44.619 24.326 44.473 25.202 43.91 25.795C43.347 26.388 42.479 26.578 41.72 26.275C40.96 25.973 40.461 25.238 40.46 24.42C40.459 23.353 41.295 22.473 42.36 22.42 M40.22 35.82C40.22 37.311 39.011 38.52 37.52 38.52C36.029 38.52 34.82 37.311 34.82 35.82C34.82 34.329 36.029 33.12 37.52 33.12C39.011 33.12 40.22 34.329 40.22 35.82 M34.82 26.54C35.925 26.54 36.82 27.435 36.82 28.54C36.82 29.645 35.925 30.54 34.82 30.54C33.715 30.54 32.82 29.645 32.82 28.54C32.82 27.435 33.715 26.54 34.82 26.54 M24 30.8C21.686 30.841 19.577 29.478 18.663 27.351C17.749 25.225 18.212 22.757 19.834 21.106C21.456 19.455 23.915 18.949 26.058 19.825C28.2 20.701 29.6 22.786 29.6 25.1C29.59 28.205 27.104 30.735 24 30.8 M55.12 39.62C54.236 38.957 52.983 39.136 52.32 40.02L42.6 52.98C42.498 53.086 42.357 53.147 42.21 53.147C42.063 53.147 41.922 53.086 41.82 52.98L36.8 48C36.002 47.326 34.819 47.38 34.085 48.124C33.352 48.868 33.314 50.051 34 50.84L39.02 55.88L39.48 56.28C40.268 56.861 41.221 57.176 42.2 57.18C43.617 57.183 44.952 56.516 45.8 55.38L55.54 42.42C55.856 41.993 55.99 41.458 55.911 40.933C55.832 40.408 55.547 39.935 55.12 39.62"></path></g></g></g><g id="g-root-ic_1_18ntnydei58gb-fill" data-item-order="-2304" transform="translate(578, 290)"><g id="ic_1_18ntnydei58gb-fill-merged" stroke="none" fill="#ffffff" fill-opacity="1"><g><path d="M32.1 10C23.895 9.992 16.497 14.94 13.373 22.528C10.249 30.115 12.017 38.839 17.85 44.61 V56.5C17.85 57.328 18.522 58 19.35 58 H40.35C41.178 58 41.85 57.328 41.85 56.5 V52 H43.35C47.492 52 50.85 48.642 50.85 44.5 V40 H53.15C54.142 39.998 55.065 39.51 55.624 38.696C56.182 37.881 56.305 36.844 55.952 35.922C55.532 34.828 55.117 33.733 54.706 32.636C52.7 27.3 50.766 22.144 48 18.172C46.308 15.738 44.264 13.674 41.638 12.23C39.01 10.78 35.884 10 32.1 10 M35.686 19.624C37.311 17.992 39.951 17.987 41.582 19.612C42.452 20.484 42.891 21.695 42.783 22.921C42.675 24.148 42.031 25.264 41.022 25.97L43.95 28.898C44.145 29.093 44.145 29.409 43.95 29.604L40.496 33.058C40.402 33.152 40.275 33.205 40.142 33.205C40.009 33.205 39.882 33.152 39.788 33.058C38.665 31.933 36.842 31.931 35.716 33.054C34.595 34.18 34.598 36.001 35.722 37.124C35.816 37.218 35.869 37.345 35.869 37.478C35.869 37.611 35.816 37.738 35.722 37.832L32.134 41.418C31.939 41.613 31.623 41.613 31.428 41.418L28.392 38.384C28.334 38.452 28.272 38.518 28.208 38.582C26.674 40.116 24.172 40.072 22.62 38.522C21.068 36.968 21.024 34.466 22.56 32.932C22.622 32.868 22.688 32.806 22.756 32.748L19.722 29.714C19.628 29.62 19.575 29.493 19.575 29.36C19.575 29.227 19.628 29.1 19.722 29.006L23.172 25.556C23.367 25.361 23.683 25.361 23.878 25.556C25.07 26.746 26.972 26.756 28.128 25.596C29.284 24.442 29.276 22.54 28.088 21.348C27.893 21.153 27.893 20.837 28.088 20.642L31.536 17.192C31.63 17.098 31.757 17.045 31.89 17.045C32.023 17.045 32.15 17.098 32.244 17.192L35.224 20.172C35.36 19.98 35.514 19.796 35.686 19.624"></path></g></g></g><g id="g-root-ic_2_vb47etei3uhb-fill" data-item-order="-2304" transform="translate(482, 290)"><g id="ic_2_vb47etei3uhb-fill-merged" stroke="none" fill="#ffffff" fill-opacity="1"><g><path d="M56 28.5 H46C45.448 28.5 45 28.948 45 29.5 V35.5C45 37.157 43.657 38.5 42 38.5 H26C24.343 38.5 23 37.157 23 35.5 V29.5C23 28.948 22.552 28.5 22 28.5 H12C10.895 28.5 10 29.395 10 30.5 V34.5C10 35.605 10.895 36.5 12 36.5 H16C16.45 36.503 16.843 36.805 16.96 37.24C17.226 38.37 17.573 39.48 18 40.56C18.143 40.939 18.057 41.365 17.78 41.66L14.9 44.52C14.526 44.897 14.317 45.408 14.32 45.94C14.322 46.465 14.531 46.967 14.9 47.34L19.16 51.6C19.94 52.375 21.2 52.375 21.98 51.6L24.84 48.74C25.136 48.421 25.602 48.324 26 48.5C27.078 48.947 28.188 49.315 29.32 49.6C29.755 49.717 30.057 50.11 30.06 50.56 V54.56C30.06 55.665 30.955 56.56 32.06 56.56 H36.06C37.165 56.56 38.06 55.665 38.06 54.56 V50.56C38.063 50.11 38.365 49.717 38.8 49.6C39.891 49.309 40.961 48.942 42 48.5C42.372 48.356 42.794 48.442 43.08 48.72L46 51.6C46.78 52.375 48.04 52.375 48.82 51.6L53.08 47.34C53.855 46.56 53.855 45.3 53.08 44.52L50.2 41.66C49.923 41.365 49.837 40.939 49.98 40.56C50.427 39.482 50.795 38.372 51.08 37.24C51.197 36.805 51.59 36.503 52.04 36.5 H56.04C57.145 36.5 58.04 35.605 58.04 34.5 V30.5C58.04 29.963 57.824 29.448 57.44 29.071C57.056 28.695 56.537 28.489 56 28.5 M26 36.5 H29C29.552 36.5 30 36.052 30 35.5 V31.5C30 30.948 30.448 30.5 31 30.5 H37C37.552 30.5 38 30.948 38 31.5 V35.5C38 36.052 38.448 36.5 39 36.5 H42C42.552 36.5 43 36.052 43 35.5 V17.5C42.999 17.16 42.826 16.844 42.54 16.66L34.54 11.66C34.214 11.438 33.786 11.438 33.46 11.66L25.46 16.66C25.174 16.844 25.001 17.16 25 17.5 V35.5C25 36.052 25.448 36.5 26 36.5 M31 18.5 H37C37.828 18.5 38.5 19.172 38.5 20C38.5 20.828 37.828 21.5 37 21.5 H31C30.172 21.5 29.5 20.828 29.5 20C29.5 19.172 30.172 18.5 31 18.5 M31 24.5 H37C37.828 24.5 38.5 25.172 38.5 26C38.5 26.828 37.828 27.5 37 27.5 H31C30.172 27.5 29.5 26.828 29.5 26C29.5 25.172 30.172 24.5 31 24.5"></path></g></g></g><g id="g-root-ic_grad_dil8qtei2haj-fill" data-item-order="-2304" transform="translate(386, 290)"><g id="ic_grad_dil8qtei2haj-fill-merged" stroke="none" fill="#ffffff" fill-opacity="1"><g><path d="M33.99 33.792C34.772 33.302 35.116 32.332 34.822 31.456C34.162 29.497 33.479 27.547 32.774 25.604L19.124 33.548 V39.48C19.124 40.207 19.519 40.877 20.154 41.229C20.79 41.582 21.567 41.561 22.184 41.176L33.99 33.792 M22.924 10.606C25.798 10.926 27.988 13.018 31.888 23.226L18.95 30.76 H16.324C13.124 30.76 10.524 28.16 10.524 24.96 V23.96C10.524 22.76 11.124 21.76 12.124 21.36L21.924 16.36 V11.56C21.924 11.008 22.374 10.548 22.924 10.608 M30.376 44.006C30.012 43.847 29.777 43.487 29.777 43.09C29.777 42.693 30.012 42.333 30.376 42.174L42.32 36.906C43.355 36.45 44.535 36.453 45.568 36.916L57.322 42.176C57.782 42.384 57.972 42.85 57.896 43.274C57.918 43.378 57.93 43.484 57.93 43.59 V48.652C57.93 49.48 57.258 50.152 56.43 50.152C55.602 50.152 54.93 49.48 54.93 48.652 V45.072L45.57 49.264C44.537 49.727 43.356 49.731 42.32 49.274L30.376 44.004 M41.31 51.562L34.83 48.702 V53.49C34.83 53.904 35.002 54.3 35.304 54.584L36.33 53.49C35.304 54.584 35.306 54.586 35.306 54.586L35.504 54.76C36.205 55.342 36.958 55.857 37.754 56.3C39.24 57.128 41.394 57.99 43.93 57.99C46.472 57.99 48.582 57.124 50.03 56.29C50.803 55.843 51.53 55.32 52.2 54.73L52.332 54.61L51.332 53.49L52.392 54.55C52.673 54.269 52.832 53.888 52.832 53.49 V48.752L46.592 51.546C44.914 52.298 42.995 52.304 41.312 51.562"></path></g></g></g><g id="g-root-ic_2_dhcaklei11qn-fill" data-item-order="-2304" transform="translate(290, 290)"><g id="ic_2_dhcaklei11qn-fill-merged" stroke="none" fill="#ffffff" fill-opacity="1"><g><path d="M44.34 44.3C44.34 46.863 46.417 48.941 48.98 48.941C51.543 48.941 53.62 46.863 53.62 44.3C53.62 41.737 51.543 39.659 48.98 39.659C46.417 39.659 44.34 41.737 44.34 44.3 M14.4 44.3C14.4 46.863 16.477 48.941 19.04 48.941C21.603 48.941 23.68 46.863 23.68 44.3C23.68 41.737 21.603 39.659 19.04 39.659C16.477 39.659 14.4 41.737 14.4 44.3 M46.32 58 H58C55.803 53.961 51.111 51.971 46.68 53.2C45.866 53.465 45.087 53.828 44.36 54.28C45.163 55.435 45.821 56.684 46.32 58 M23.52 54.22C22.833 53.788 22.094 53.445 21.32 53.2C16.889 51.971 12.197 53.961 10 58 H21.48C22.015 56.667 22.699 55.399 23.52 54.22 M44.14 58C42.521 53.748 38.544 50.853 34 50.62C29.386 50.786 25.316 53.69 23.66 58 H44.14 M30.7 24.84C30.7 26.607 32.133 28.04 33.9 28.04C35.667 28.04 37.1 26.607 37.1 24.84C37.1 23.073 35.667 21.64 33.9 21.64C32.133 21.64 30.7 23.073 30.7 24.84 M44 25.5C43.656 25.119 43.656 24.541 44 24.16L46.18 22C47.339 20.783 47.543 18.942 46.68 17.5C45.86 16.052 44.177 15.325 42.56 15.72L39.56 16.42C39.063 16.515 38.573 16.223 38.42 15.74L37.52 12.78C37.04 11.182 35.569 10.088 33.9 10.088C32.231 10.088 30.76 11.182 30.28 12.78L29.38 15.64C29.243 16.126 28.754 16.423 28.26 16.32L25.24 15.62C23.623 15.218 21.936 15.946 21.12 17.4C20.219 18.868 20.425 20.76 21.62 22L23.74 24.16C24.084 24.541 24.084 25.119 23.74 25.5L21.62 27.76C20.474 28.983 20.271 30.815 21.12 32.26C21.943 33.704 23.631 34.417 25.24 34L28.26 33.32C28.75 33.205 29.243 33.496 29.38 33.98L29.92 35.7C32.401 34.255 35.476 34.293 37.92 35.8L38.48 33.98C38.633 33.499 39.127 33.214 39.62 33.32L42.62 34C44.239 34.417 45.934 33.685 46.74 32.22C47.603 30.778 47.399 28.937 46.24 27.72L44 25.5 M34 31.22C31.41 31.22 29.075 29.659 28.085 27.265C27.096 24.871 27.647 22.116 29.482 20.287C31.316 18.459 34.072 17.916 36.463 18.913C38.854 19.91 40.408 22.25 40.4 24.84C40.4 26.536 39.725 28.161 38.524 29.358C37.323 30.555 35.696 31.225 34 31.22 M27.98 42.5C27.98 45.714 30.586 48.32 33.8 48.32C37.014 48.32 39.62 45.714 39.62 42.5C39.62 39.286 37.014 36.68 33.8 36.68C30.586 36.68 27.98 39.286 27.98 42.5"></path></g></g></g><g id="g-root-ic_1_zmkdxhehzmyz-fill" data-item-order="-2304" transform="translate(194, 290)"><g id="ic_1_zmkdxhehzmyz-fill-merged" stroke="none" fill="#ffffff" fill-opacity="1"><g><path d="M37.24 40.38C36.679 40.905 35.989 41.271 35.24 41.44L28.82 44C27.334 44.598 25.634 44.252 24.5 43.12C23.368 41.986 23.022 40.286 23.62 38.8C23.62 38.8 26.2 32.46 26.28 32.34C26.422 31.581 26.792 30.884 27.34 30.34L39.86 18C39.99 17.851 40.023 17.641 39.947 17.458C39.871 17.276 39.697 17.152 39.5 17.14 H17.4C13.965 17.129 11.171 19.905 11.16 23.34 V50.86C11.16 54.306 13.954 57.1 17.4 57.1 H44.92C48.366 57.1 51.16 54.306 51.16 50.86 V27.66C51.165 27.454 51.044 27.265 50.853 27.186C50.663 27.106 50.443 27.151 50.3 27.3L37.24 40.38 M52.86 10.9C51.796 10.859 50.762 11.256 50 12L48 14.14C47.819 14.328 47.718 14.579 47.72 14.84C47.721 15.106 47.821 15.363 48 15.56L52.16 19.8C52.553 20.171 53.167 20.171 53.56 19.8L55.68 17.68C56.431 16.93 56.853 15.912 56.853 14.85C56.853 13.788 56.431 12.77 55.68 12.02C54.924 11.291 53.911 10.888 52.86 10.9 M45.72 17.74C45.324 17.356 44.696 17.356 44.3 17.74L31.58 30.48C31.387 30.661 31.277 30.915 31.277 31.18C31.277 31.445 31.387 31.699 31.58 31.88L35.82 36.12C36.003 36.31 36.256 36.418 36.52 36.42C36.79 36.419 37.049 36.311 37.24 36.12L50 23.4C50.187 23.214 50.294 22.963 50.3 22.7C50.29 22.438 50.183 22.188 50 22L45.72 17.74 M33.76 38.88C34.074 38.757 34.305 38.483 34.374 38.152C34.443 37.821 34.34 37.478 34.1 37.24L30.46 33.6C30.228 33.359 29.885 33.26 29.56 33.34C29.226 33.399 28.946 33.625 28.82 33.94L26.4 40C26.256 40.372 26.342 40.794 26.62 41.08C26.815 41.265 27.071 41.371 27.34 41.38C27.459 41.399 27.581 41.399 27.7 41.38L33.76 38.88"></path></g></g></g><g id="g-root-ic_expe_zn6v0lehwt1j-fill" data-item-order="-2304" transform="translate(98, 290)"><g id="ic_expe_zn6v0lehwt1j-fill-merged" stroke="none" fill="#ffffff" fill-opacity="1"><g><path d="M35.6 24.92C35.598 25.28 35.398 25.611 35.08 25.78C31.059 28.082 28.585 32.367 28.6 37C28.581 43.314 33.102 48.728 39.317 49.836C45.533 50.945 51.646 47.427 53.812 41.497C55.977 35.566 53.568 28.937 48.1 25.78C47.786 25.609 47.594 25.277 47.6 24.92 V22.92C47.6 22.368 48.048 21.92 48.6 21.92 H50.6C51.705 21.92 52.6 21.025 52.6 19.92C52.6 18.815 51.705 17.92 50.6 17.92 H48.6C48.048 17.92 47.6 17.472 47.6 16.92 V12.92C47.557 11.294 46.226 9.999 44.6 10 H38.6C36.943 10 35.6 11.343 35.6 13 V17C35.589 17.556 35.136 18 34.58 18 H31.42C31.096 17.995 30.793 17.84 30.6 17.58C30.424 17.307 30.38 16.969 30.48 16.66C30.844 15.616 30.294 14.475 29.25 14.11C28.206 13.746 27.065 14.296 26.7 15.34L13.64 52.68C13.213 53.901 13.403 55.253 14.149 56.309C14.896 57.365 16.107 57.995 17.4 58 H44.4C45.505 58 46.4 57.105 46.4 56C46.4 54.895 45.505 54 44.4 54 H18.82C18.495 53.998 18.191 53.842 18 53.58C17.812 53.312 17.767 52.968 17.88 52.66L28.14 23.34C28.417 22.547 29.16 22.012 30 22 H34.56C35.116 22 35.569 22.444 35.58 23 V24.92 M36.6 39.5C35.772 39.5 35.1 38.828 35.1 38C35.1 37.172 35.772 36.5 36.6 36.5C37.428 36.5 38.1 37.172 38.1 38C38.1 38.828 37.428 39.5 36.6 39.5 M42.1 44.5C41.272 44.5 40.6 43.828 40.6 43C40.6 42.172 41.272 41.5 42.1 41.5C42.928 41.5 43.6 42.172 43.6 43C43.6 43.828 42.928 44.5 42.1 44.5 M46.6 40.88C45.219 40.88 44.1 39.761 44.1 38.38C44.1 36.999 45.219 35.88 46.6 35.88C47.981 35.88 49.1 36.999 49.1 38.38C49.1 39.761 47.981 40.88 46.6 40.88 M39.6 15C39.6 14.448 40.048 14 40.6 14 H42.6C43.152 14 43.6 14.448 43.6 15 V17C43.6 17.552 43.152 18 42.6 18 H40.6C40.048 18 39.6 17.552 39.6 17 V15 M42.6 22C43.152 22 43.6 22.448 43.6 23 V26.8C43.599 27.62 44.099 28.357 44.86 28.66C47.044 29.511 48.814 31.174 49.8 33.3C49.869 33.452 49.869 33.628 49.8 33.78C49.704 33.917 49.547 33.998 49.38 34 H33.84C33.673 33.998 33.516 33.917 33.42 33.78C33.338 33.63 33.338 33.45 33.42 33.3C34.391 31.17 36.157 29.505 38.34 28.66C39.109 28.363 39.618 27.625 39.62 26.8 V23C39.62 22.448 40.068 22 40.62 22 H42.6"></path></g></g></g><g id="g-root-tx_aplicaci_1hduef9ehwtu6-fill" data-item-order="0" transform="translate(830, 206)"><g id="tx_aplicaci_1hduef9ehwtu6-fill-merged" stroke="none" fill="#484848" fill-opacity="1"><g><text style="font: 15px Roboto, sans-serif; white-space: pre;" transform="translate(82, 22)" font-size="15px" font-family="Roboto, sans-serif"><tspan x="-64.18" y="8.92" dominant-baseline="ideographic">Aplicación Práctica</tspan></text></g></g></g><g id="g-root-tx_asesorae_4j7dz9ehwuth-fill" data-item-order="0" transform="translate(674, 170)"><g id="tx_asesorae_4j7dz9ehwuth-fill-merged" stroke="none" fill="#484848" fill-opacity="1"><g><text style="font: 15px Roboto, sans-serif; white-space: pre;" transform="translate(76, 40)" font-size="15px" font-family="Roboto, sans-serif"><tspan x="-37.34" y="-9.08" dominant-baseline="ideographic">Asesora en </tspan><tspan x="-48.45" y="8.92" dominant-baseline="ideographic">adquisición de </tspan><tspan x="-62.81" y="26.92" dominant-baseline="ideographic">equipos científicos</tspan></text></g></g></g><g id="g-root-tx_fortalec_4hyft1ehwsnd-fill" data-item-order="0" transform="translate(374, 170)"><g id="tx_fortalec_4hyft1ehwsnd-fill-merged" stroke="none" fill="#484848" fill-opacity="1"><g><text style="font: 15px Roboto, sans-serif; white-space: pre;" transform="translate(82, 40)" font-size="15px" font-family="Roboto, sans-serif"><tspan x="-31.3" y="-9.08" dominant-baseline="ideographic">Fortalece </tspan><tspan x="-47.23" y="8.92" dominant-baseline="ideographic">competencias </tspan><tspan x="-69.66" y="26.92" dominant-baseline="ideographic">científicas y técnicas</tspan></text></g></g></g><g id="g-root-tx_investig_4g30jpehwtn1-fill" data-item-order="0" transform="translate(56, 194)"><g id="tx_investig_4g30jpehwtn1-fill-merged" stroke="none" fill="#484848" fill-opacity="1"><g><text style="font: 15px Roboto, sans-serif; white-space: pre;" transform="translate(64, 28)" font-size="15px" font-family="Roboto, sans-serif"><tspan x="-46.2" y="-0.08" dominant-baseline="ideographic">Investigación </tspan><tspan x="-45.55" y="17.92" dominant-baseline="ideographic">Fundamental</tspan></text></g></g></g><g id="g-root-tx_potencia_zlbfr9ehwu17-fill" data-item-order="0" transform="translate(542, 158)"><g id="tx_potencia_zlbfr9ehwu17-fill-merged" stroke="none" fill="#484848" fill-opacity="1"><g><text style="font: 15px Roboto, sans-serif; white-space: pre;" transform="translate(64, 46)" font-size="15px" font-family="Roboto, sans-serif"><tspan x="-38.97" y="-18.08" dominant-baseline="ideographic">Potencia la </tspan><tspan x="-51.07" y="-0.08" dominant-baseline="ideographic">innovación y el </tspan><tspan x="-41.14" y="17.92" dominant-baseline="ideographic">crecimiento </tspan><tspan x="-41.28" y="35.92" dominant-baseline="ideographic">empresarial</tspan></text></g></g></g><g id="g-root-tx_produced_zjg0hxehwv0v-fill" data-item-order="0" transform="translate(230, 158)"><g id="tx_produced_zjg0hxehwv0v-fill-merged" stroke="none" fill="#484848" fill-opacity="1"><g><text style="font: 15px Roboto, sans-serif; white-space: pre;" transform="translate(58, 46)" font-size="15px" font-family="Roboto, sans-serif"><tspan x="-27.84" y="-18.08" dominant-baseline="ideographic">Produce </tspan><tspan x="-41.88" y="-0.08" dominant-baseline="ideographic">documentos </tspan><tspan x="-34.5" y="17.92" dominant-baseline="ideographic">científicos </tspan><tspan x="-45.41" y="35.92" dominant-baseline="ideographic">profesionales</tspan></text></g></g></g><g id="g-root-tx_comprase_hunwclehwt8k-fill" data-item-order="0" transform="translate(692, 122)"><g id="tx_comprase_hunwclehwt8k-fill-merged" stroke="none" fill="#484848" fill-opacity="1"><g><text style="font: bold 15px Roboto, sans-serif; white-space: pre;" transform="translate(58, 28)" font-weight="bold" font-size="15px" font-family="Roboto, sans-serif"><tspan x="-36.24" y="-0.08" dominant-baseline="ideographic">Compras e </tspan><tspan x="-40.94" y="17.92" dominant-baseline="ideographic">Importación</tspan></text></g></g></g><g id="g-root-tx_consulto_1lrshadehwute-fill" data-item-order="0" transform="translate(548, 110)"><g id="tx_consulto_1lrshadehwute-fill-merged" stroke="none" fill="#484848" fill-opacity="1"><g><text style="font: bold 15px Roboto, sans-serif; white-space: pre;" transform="translate(58, 28)" font-weight="bold" font-size="15px" font-family="Roboto, sans-serif"><tspan x="-40.72" y="-0.08" dominant-baseline="ideographic">Consultoría </tspan><tspan x="-39.88" y="17.92" dominant-baseline="ideographic">Estratégica</tspan></text></g></g></g><g id="g-root-tx_formacin_hssh39ehwu88-fill" data-item-order="0" transform="translate(398, 122)"><g id="tx_formacin_hssh39ehwu88-fill-merged" stroke="none" fill="#484848" fill-opacity="1"><g><text style="font: bold 15px Roboto, sans-serif; white-space: pre;" transform="translate(58, 28)" font-weight="bold" font-size="15px" font-family="Roboto, sans-serif"><tspan x="-42.14" y="-0.08" dominant-baseline="ideographic">Formación y </tspan><tspan x="-44.57" y="17.92" dominant-baseline="ideographic">Capacitación</tspan></text></g></g></g><g id="g-root-tx_redaccin_1lqjj45ehwsna-fill" data-item-order="0" transform="translate(206, 122)"><g id="tx_redaccin_1lqjj45ehwsna-fill-merged" stroke="none" fill="#484848" fill-opacity="1"><g><text style="font: bold 15px Roboto, sans-serif; white-space: pre;" transform="translate(82, 22)" font-weight="bold" font-size="15px" font-family="Roboto, sans-serif"><tspan x="-69.4" y="8.92" dominant-baseline="ideographic">Redacción Científica</tspan></text></g></g></g><g id="g-root-tx_organiza_93e7pheidn9c-fill" data-item-order="0" transform="translate(794, 434)"><g id="tx_organiza_93e7pheidn9c-fill-merged" stroke="none" fill="#484848" fill-opacity="1"><g><text style="font: 15px Roboto, sans-serif; white-space: pre;" transform="translate(76, 46)" font-size="15px" font-family="Roboto, sans-serif"><tspan x="-59.56" y="-18.08" dominant-baseline="ideographic">Organiza eventos </tspan><tspan x="-42.62" y="-0.08" dominant-baseline="ideographic">académicos </tspan><tspan x="-41.67" y="17.92" dominant-baseline="ideographic">científicos y </tspan><tspan x="-49.13" y="35.92" dominant-baseline="ideographic">empresariales</tspan></text></g></g></g><g id="g-root-tx_subcontr_4jtv2deidq0x-fill" data-item-order="0" transform="translate(260, 398)"><g id="tx_subcontr_4jtv2deidq0x-fill-merged" stroke="none" fill="#484848" fill-opacity="1"><g><text style="font: bold 15px Roboto, sans-serif; white-space: pre;" transform="translate(82, 28)" font-weight="bold" font-size="15px" font-family="Roboto, sans-serif"><tspan x="-67.42" y="-0.08" dominant-baseline="ideographic">Subcontratación de </tspan><tspan x="-31.61" y="17.92" dominant-baseline="ideographic">Expertos</tspan></text></g></g></g><g id="g-root-tx_gerencia_zntc3peido8z-fill" data-item-order="0" transform="translate(464, 398)"><g id="tx_gerencia_zntc3peido8z-fill-merged" stroke="none" fill="#484848" fill-opacity="1"><g><text style="font: bold 15px Roboto, sans-serif; white-space: pre;" transform="translate(58, 28)" font-weight="bold" font-size="15px" font-family="Roboto, sans-serif"><tspan x="-41.99" y="-0.08" dominant-baseline="ideographic">Gerencia de </tspan><tspan x="-35.71" y="17.92" dominant-baseline="ideographic">Proyectos</tspan></text></g></g></g><g id="g-root-tx_evaluaci_1ur6c1xeidpmt-fill" data-item-order="0" transform="translate(644, 398)"><g id="tx_evaluaci_1ur6c1xeidpmt-fill-merged" stroke="none" fill="#484848" fill-opacity="1"><g><text style="font: bold 15px Roboto, sans-serif; white-space: pre;" transform="translate(52, 22)" font-weight="bold" font-size="15px" font-family="Roboto, sans-serif"><tspan x="-36.4" y="8.92" dominant-baseline="ideographic">Evaluación</tspan></text></g></g></g><g id="g-root-tx_eventosc_hyeqv9eidoun-fill" data-item-order="0" transform="translate(788, 398)"><g id="tx_eventosc_hyeqv9eidoun-fill-merged" stroke="none" fill="#484848" fill-opacity="1"><g><text style="font: bold 15px Roboto, sans-serif; white-space: pre;" transform="translate(82, 22)" font-weight="bold" font-size="15px" font-family="Roboto, sans-serif"><tspan x="-64.8" y="8.92" dominant-baseline="ideographic">Eventos Científicos</tspan></text></g></g></g><g id="g-root-tx_creasolu_v64epxeidq0w-fill" data-item-order="0" transform="translate(80, 446)"><g id="tx_creasolu_v64epxeidq0w-fill-merged" stroke="none" fill="#484848" fill-opacity="1"><g><text style="font: 15px Roboto, sans-serif; white-space: pre;" transform="translate(82, 28)" font-size="15px" font-family="Roboto, sans-serif"><tspan x="-53.38" y="-0.08" dominant-baseline="ideographic">Crea soluciones </tspan><tspan x="-64.83" y="17.92" dominant-baseline="ideographic">tecnológicas reales</tspan></text></g></g></g><g id="g-root-tx_impulsap_1hegvideidp1m-fill" data-item-order="0" transform="translate(260, 446)"><g id="tx_impulsap_1hegvideidp1m-fill-merged" stroke="none" fill="#484848" fill-opacity="1"><g><text style="font: 15px Roboto, sans-serif; white-space: pre;" transform="translate(82, 40)" font-size="15px" font-family="Roboto, sans-serif"><tspan x="-63.28" y="-9.08" dominant-baseline="ideographic">Impulsa proyectos </tspan><tspan x="-64.84" y="8.92" dominant-baseline="ideographic">con investigadores </tspan><tspan x="-38.05" y="26.92" dominant-baseline="ideographic">calificados</tspan></text></g></g></g><g id="g-root-tx_gestiona_dhcakleidngs-fill" data-item-order="0" transform="translate(440, 446)"><g id="tx_gestiona_dhcakleidngs-fill-merged" stroke="none" fill="#484848" fill-opacity="1"><g><text style="font: 15px Roboto, sans-serif; white-space: pre;" transform="translate(82, 40)" font-size="15px" font-family="Roboto, sans-serif"><tspan x="-66.27" y="-9.08" dominant-baseline="ideographic">Gestiona proyectos </tspan><tspan x="-41.67" y="8.92" dominant-baseline="ideographic">científicos y </tspan><tspan x="-44.84" y="26.92" dominant-baseline="ideographic">tecnológicos</tspan></text></g></g></g><g id="g-root-tx_validapr_18kpaiteidoum-fill" data-item-order="0" transform="translate(620, 434)"><g id="tx_validapr_18kpaiteidoum-fill-merged" stroke="none" fill="#484848" fill-opacity="1"><g><text style="font: 15px Roboto, sans-serif; white-space: pre;" transform="translate(76, 40)" font-size="15px" font-family="Roboto, sans-serif"><tspan x="-62.59" y="-9.08" dominant-baseline="ideographic">Valida proyectos y </tspan><tspan x="-35.63" y="8.92" dominant-baseline="ideographic">productos </tspan><tspan x="-36.26" y="26.92" dominant-baseline="ideographic">científicos</tspan></text></g></g></g><g id="g-root-tx_investig_1cxef7peidnnr-fill" data-item-order="0" transform="translate(92, 398)"><g id="tx_investig_1cxef7peidnnr-fill-merged" stroke="none" fill="#484848" fill-opacity="1"><g><text style="font: bold 15px Roboto, sans-serif; white-space: pre;" transform="translate(70, 28)" font-weight="bold" font-size="15px" font-family="Roboto, sans-serif"><tspan x="-52.69" y="-0.08" dominant-baseline="ideographic">Investigación y </tspan><tspan x="-36.46" y="17.92" dominant-baseline="ideographic">Desarrollo</tspan></text></g></g></g><g id="g-root-cp_1_lines-1_1lws6theihx57-stroke" data-item-order="-507692" transform="translate(13.18975830078125, 241.3441162109375)"></g><g id="g-root-cp_2_lines-2_18ly5j9eihvkc-stroke" data-item-order="-507680" transform="translate(170, 266)"></g><g id="g-root-cp_3_lines-3_1464neteihwcl-stroke" data-item-order="-507674" transform="translate(266, 266)"></g><g id="g-root-cp_4_lines-4_qvam4leihurq-stroke" data-item-order="-507668" transform="translate(362, 266)"></g><g id="g-root-cp_5_lines-5_hznlvpeihvkf-stroke" data-item-order="-507662" transform="translate(458, 266)"></g><g id="g-root-cp_6_lines-6_dju3r9eihwco-stroke" data-item-order="-507656" transform="translate(554, 266)"></g><g id="g-root-cp_7_lines-7_902h1eihurt-stroke" data-item-order="-507650" transform="translate(650, 266)"></g><g id="g-root-cp_8_lines-8_1uuambpeihvcy-stroke" data-item-order="-507644" transform="translate(746, 266)"></g><g id="g-root-cp_9_lines-9_1lynm2teihw5n-stroke" data-item-order="-507638" transform="translate(842, 241)"></g><g id="g-root-ic_2_1hd7xc5eic9hq-stroke" data-item-order="-2304" transform="translate(866, 290)"></g><g id="g-root-ic_seac_v5hxmtei9gjn-stroke" data-item-order="-2304" transform="translate(770, 290)"></g><g id="g-root-ic_gran_4g30jpei81zj-stroke" data-item-order="-2304" transform="translate(674, 290)"></g><g id="g-root-ic_1_18ntnydei58gb-stroke" data-item-order="-2304" transform="translate(578, 290)"></g><g id="g-root-ic_2_vb47etei3uhb-stroke" data-item-order="-2304" transform="translate(482, 290)"></g><g id="g-root-ic_grad_dil8qtei2haj-stroke" data-item-order="-2304" transform="translate(386, 290)"></g><g id="g-root-ic_2_dhcaklei11qn-stroke" data-item-order="-2304" transform="translate(290, 290)"></g><g id="g-root-ic_1_zmkdxhehzmyz-stroke" data-item-order="-2304" transform="translate(194, 290)"></g><g id="g-root-ic_expe_zn6v0lehwt1j-stroke" data-item-order="-2304" transform="translate(98, 290)"></g><g id="g-root-tx_aplicaci_1hduef9ehwtu6-stroke" data-item-order="0" transform="translate(830, 206)"></g><g id="g-root-tx_asesorae_4j7dz9ehwuth-stroke" data-item-order="0" transform="translate(674, 170)"></g><g id="g-root-tx_fortalec_4hyft1ehwsnd-stroke" data-item-order="0" transform="translate(374, 170)"></g><g id="g-root-tx_investig_4g30jpehwtn1-stroke" data-item-order="0" transform="translate(56, 194)"></g><g id="g-root-tx_potencia_zlbfr9ehwu17-stroke" data-item-order="0" transform="translate(542, 158)"></g><g id="g-root-tx_produced_zjg0hxehwv0v-stroke" data-item-order="0" transform="translate(230, 158)"></g><g id="g-root-tx_comprase_hunwclehwt8k-stroke" data-item-order="0" transform="translate(692, 122)"></g><g id="g-root-tx_consulto_1lrshadehwute-stroke" data-item-order="0" transform="translate(548, 110)"></g><g id="g-root-tx_formacin_hssh39ehwu88-stroke" data-item-order="0" transform="translate(398, 122)"></g><g id="g-root-tx_redaccin_1lqjj45ehwsna-stroke" data-item-order="0" transform="translate(206, 122)"></g><g id="g-root-tx_organiza_93e7pheidn9c-stroke" data-item-order="0" transform="translate(794, 434)"></g><g id="g-root-tx_subcontr_4jtv2deidq0x-stroke" data-item-order="0" transform="translate(260, 398)"></g><g id="g-root-tx_gerencia_zntc3peido8z-stroke" data-item-order="0" transform="translate(464, 398)"></g><g id="g-root-tx_evaluaci_1ur6c1xeidpmt-stroke" data-item-order="0" transform="translate(644, 398)"></g><g id="g-root-tx_eventosc_hyeqv9eidoun-stroke" data-item-order="0" transform="translate(788, 398)"></g><g id="g-root-tx_creasolu_v64epxeidq0w-stroke" data-item-order="0" transform="translate(80, 446)"></g><g id="g-root-tx_impulsap_1hegvideidp1m-stroke" data-item-order="0" transform="translate(260, 446)"></g><g id="g-root-tx_gestiona_dhcakleidngs-stroke" data-item-order="0" transform="translate(440, 446)"></g><g id="g-root-tx_validapr_18kpaiteidoum-stroke" data-item-order="0" transform="translate(620, 434)"></g><g id="g-root-tx_investig_1cxef7peidnnr-stroke" data-item-order="0" transform="translate(92, 398)"></g></g></g><path id="w8zmeg5dny1ac" d="M65.283 12.757a.35.35 0 0 0 .584.157l5.203-5.141-6.183 3.523.396 1.461zm-2.216-11.7a.35.35 0 0 0-.522.305v3.111l3.276-1.868-2.754-1.548zm3.728 2.105l-4.25 2.421v2.445l6.391-3.644-2.141-1.222zm4.708 3.303a.35.35 0 0 0 0-.609l-1.592-.9-7.365 4.199v1.782a.35.35 0 0 0 .523.305l8.435-4.777z M44.542 2.513c0-.433.355-.783.792-.783s.792.35.792.783-.355.783-.792.783-.792-.35-.792-.783zm59.171 0c0-.433.355-.783.792-.783s.792.35.792.783-.355.783-.792.783-.792-.35-.792-.783zm-85.951 7.636h-1.27v-.487c-.276.201-.864.609-1.881.609-1.202 0-2.274-.794-2.137-2.078.118-1.106 1.153-1.584 1.848-1.727l2.17-.345c0-.539-.29-.956-1.064-1.006s-1.21.305-1.571 1.017l-1.124-.605c1.218-2.631 5.029-1.764 5.029.414v4.207zm-1.27-2.86c.006.396-.062 1.112-.819 1.59-.587.37-1.841.299-1.903-.395-.049-.555.461-.791.906-.898l1.816-.297zm72.662 2.86h-1.27v-.487c-.276.201-.864.609-1.881.609-1.202 0-2.274-.794-2.137-2.078.118-1.106 1.153-1.584 1.848-1.727l2.17-.345c0-.539-.29-.956-1.064-1.006s-1.21.305-1.571 1.017l-1.124-.605c1.218-2.631 5.029-1.764 5.029.414v4.207zm-1.27-2.86c.006.396-.062 1.112-.82 1.59-.587.37-1.841.299-1.903-.395-.049-.555.461-.791.906-.898l1.816-.297zM99.096 10.149H97.85v-8.45h1.246v4.895l2.68-2.559h1.738l-2.633 2.535 2.715 3.578h-1.556l-2.077-2.707-.867.844v1.863zm6.053-6.114h-1.255v6.113h1.255V4.035zm-59.2 0h-1.255v6.113h1.255V4.035zm5.584 6.113V1.697h1.255v2.695c.361-.346 1-.485 1.47-.485 1.452 0 2.477 1.082 2.457 2.448v3.792h-1.27v-3.68c0-.408-.214-1.339-1.315-1.339-.968 0-1.342.756-1.342 1.339v3.681h-1.255zm-4.76-4.894V4.039h.621a.45.45 0 0 0 .45-.45v-.855h1.251v1.305h1.309v1.215h-1.309v3.109c0 .293.105.664.648.664.365 0 .531-.035.736-.07v1.137s-.361.113-.857.113c-1.398 0-1.777-1.051-1.777-1.788V5.254h-1.071zM36.528 4.039h-1.394l2.191 6.106h1.125l1.234-3.918 1.238 3.918h1.129l2.188-6.106h-1.383l-1.359 3.93-1.256-3.93h-1.124l-1.242 3.957-1.348-3.957zM26.212 7.141c-.02 1.566 1.187 3.129 3.223 3.129 1.566 0 2.383-.918 2.734-1.719L31.172 8c-.315.399-.801 1.094-1.738 1.094-1.145 0-1.825-.781-1.891-1.52h4.625c.074-.284.148-.995-.03-1.559-.336-1.064-1.221-2.102-2.839-2.102s-3.088 1.152-3.088 3.227zm1.363-.75h3.348c-.055-.43-.566-1.301-1.623-1.301a1.79 1.79 0 0 0-1.725 1.301zm-8.758.75c.038 1.758 1.277 3.133 3.145 3.133 1.074 0 1.723-.477 1.961-.672v.547h1.242V1.703h-1.258v2.888c-.414-.36-1.062-.68-1.93-.68-1.91 0-3.198 1.473-3.16 3.23zm1.309-.08c0 1.119.723 1.978 1.836 1.978a1.88 1.88 0 0 0 1.94-1.904c0-1.371-1.011-1.99-1.972-1.99s-1.805.798-1.805 1.916zm76.683-.028C96.771 5.275 95.532 3.9 93.664 3.9c-1.074 0-1.723.477-1.961.672v-.547h-1.242v8.22h1.258V9.583c.414.36 1.063.68 1.93.68 1.91 0 3.198-1.473 3.16-3.23zm-1.309.08c0-1.119-.723-1.978-1.836-1.978a1.88 1.88 0 0 0-1.94 1.904c0 1.371 1.011 1.99 1.972 1.99S95.5 8.231 95.5 7.113zM106.441 10.173V4.036h1.254v.382c.361-.346 1-.485 1.47-.485 1.452 0 2.477 1.082 2.457 2.448v3.792h-1.27V6.492c0-.408-.214-1.339-1.315-1.339-.969 0-1.342.756-1.342 1.339v3.681h-1.254zm-30.383-.021V1.824h1.084l4.215 5.777V1.824h1.32v8.328h-1.094l-4.207-5.796v5.796h-1.319zM5.24 10.149H4V2.377h1.014l2.664 3.597 2.654-3.592h1.03v7.766h-1.256V4.762L7.678 8.068 5.24 4.742v5.407z" transform="translate(944, 566)" fill="#80808088" stroke="none"></path></svg>