<?xml version="1.0" encoding="utf-8" standalone="yes"?>
<!DOCTYPE svg PUBLIC "-//W3C//DTD SVG 1.1//EN" "http://www.w3.org/Graphics/SVG/1.1/DTD/svg11.dtd">
<svg style="fill:none;stroke:none;fill-rule:evenodd;clip-rule:evenodd;stroke-linecap:round;stroke-linejoin:round;stroke-miterlimit:1.5;" version="1.1" xmlns="http://www.w3.org/2000/svg" xmlns:xlink="http://www.w3.org/1999/xlink" width="702" height="966" viewBox="0 0 702 966"><style class="text-font-style fontImports" data-font-family="Roboto">@import url(https://fonts.googleapis.com/css2?family=Roboto:wght@400;700&amp;amp;display=block);</style><g id="items" style="isolation: isolate"><g id="blend" style="mix-blend-mode: normal"><g id="g-root-cp_5_shape-5_vbq5k5hjv7d2-fill" data-item-order="-561120" transform="translate(314.302734375, 104)"><g id="cp_5_shape-5_vbq5k5hjv7d2-fill-merged" stroke="none" fill="#66a0ff" fill-opacity="1"><g><path d="M27.697 28.191 H32.297C33.087 28.191 33.577 27.341 33.177 26.661L22.53 10.451C22.136 9.851 21.256 9.849 20.86 10.448L10.137 26.661C9.747 27.341 10.237 28.191 11.017 28.191 H15.697 V292 H27.697 V28.191"></path></g></g></g><g id="g-root-cp_1_shape-1_mgpmedhjv4zz-fill" data-item-order="-561110" transform="translate(31.999969482421875, 103.81640625)"><g id="cp_1_shape-1_mgpmedhjv4zz-fill-merged" stroke="none" fill="#4371bd" fill-opacity="1"><g><path d="M250 28.375 H254.6C255.39 28.375 255.88 27.525 255.48 26.844L244.833 10.635C244.439 10.034 243.559 10.033 243.163 10.632L232.44 26.844C232.05 27.524 232.54 28.374 233.32 28.374 H238 V55.034C238 94.374 213.07 124.504 172 124.504 H46C26.118 124.504 10 140.301 10 160.184 V292.184C10 312.081 26.118 328.184 46 328.184 H214C233.882 328.184 250 312.066 250 292.184 V28.375"></path></g></g></g><g id="g-root-cp_3_shape-3_dl2m5hhjv6kg-fill" data-item-order="-561096" transform="translate(284.302734375, 104)"><g id="cp_3_shape-3_dl2m5hhjv6kg-fill-merged" stroke="none" fill="#4e88e7" fill-opacity="1"><g><path d="M27.697 28.191 H32.297C33.087 28.191 33.577 27.341 33.177 26.661L22.53 10.451C22.136 9.851 21.256 9.849 20.86 10.448L10.137 26.661C9.747 27.341 10.237 28.191 11.017 28.191 H15.697 V292 H27.697 V28.191"></path></g></g></g><g id="g-root-cp_5_shape-5_1_8zhhhjwjk1-fill" data-item-order="-561074" transform="translate(320, 386)"><g id="cp_5_shape-5_1_8zhhhjwjk1-fill-merged" stroke="none" fill="#66a0ff" fill-opacity="1"><g><path d="M10 232 H22 V10 H10 V232"></path></g></g></g><g id="g-root-cp_3_shape-3_2_1lpwj39hjwkxu-fill" data-item-order="-561068" transform="translate(32.00001525878906, 386)"><g id="cp_3_shape-3_2_1lpwj39hjwkxu-fill-merged" stroke="none" fill="#4e88e7" fill-opacity="1"><g><path d="M10 100C10 80.118 26.118 64.321 46 64.321 H214C244 64.321 268 46 268 10 H280 V231.979C280 251.89 263.882 268.008 244 268.008 H46C26.118 268.008 10 251.905 10 232.023 V100"></path></g></g></g><g id="g-root-cp_5_shape-5_3_18f2ht1hjwjcz-fill" data-item-order="-561042" transform="translate(32.00001525878906, 608)"><g id="cp_5_shape-5_3_18f2ht1hjwjcz-fill-merged" stroke="none" fill="#66a0ff" fill-opacity="1"><g><path d="M310 10 H298C298 45.878 274 64.137 244 64.137 H46C26.118 64.137 10 80.185 10 100 V208C10 227.882 26.118 244.008 46 244.008 H274C293.882 244.008 310 227.882 310 208 V10"></path></g></g></g><g id="g-root-cp_2_shape-2_v3lzfphjwkxw-fill" data-item-order="-561016" transform="translate(404.3775634765625, 103.81640625)"><g id="cp_2_shape-2_v3lzfphjwkxw-fill-merged" stroke="none" fill="#4f82d5" fill-opacity="1"><g><path d="M255.622 160.184C255.622 140.301 239.505 124.504 219.623 124.504 H93.622C52.552 124.504 27.622 94.374 27.622 55.034 V28.374 H32.302C33.082 28.374 33.572 27.524 33.182 26.844L22.459 10.632C22.063 10.033 21.184 10.034 20.79 10.635L10.142 26.844C9.742 27.525 10.232 28.375 11.022 28.375 H15.622 V292.184C15.622 312.066 31.74 328.184 51.622 328.184 H219.623C239.505 328.184 255.622 312.081 255.622 292.199 V160.184"></path></g></g></g><g id="g-root-cp_4_shape-4_hsry5hhjwjd1-fill" data-item-order="-561002" transform="translate(374.382568359375, 104)"><g id="cp_4_shape-4_hsry5hhjwjd1-fill-merged" stroke="none" fill="#4e8ff7" fill-opacity="1"><g><path d="M27.622 28.191 H32.302C33.082 28.191 33.572 27.341 33.182 26.661L22.459 10.448C22.063 9.849 21.184 9.851 20.789 10.451L10.142 26.661C9.742 27.341 10.232 28.191 11.022 28.191 H15.622 V292 H27.623 V28.191"></path></g></g></g><g id="g-root-cp_6_shape-6_8x4xwlhjwk5q-fill" data-item-order="-560992" transform="translate(344.382568359375, 104)"><g id="cp_6_shape-6_8x4xwlhjwk5q-fill-merged" stroke="none" fill="#95bdff" fill-opacity="1"><g><path d="M27.622 28.191 H32.302C33.082 28.191 33.572 27.341 33.182 26.661L22.459 10.448C22.063 9.849 21.184 9.851 20.789 10.451L10.142 26.661C9.742 27.341 10.232 28.191 11.022 28.191 H15.622 V292 H27.623 V28.191"></path></g></g></g><g id="g-root-cp_4_shape-4_2_1umshidhjwljj-fill" data-item-order="-560970" transform="translate(380, 386)"><g id="cp_4_shape-4_2_1umshidhjwljj-fill-merged" stroke="none" fill="#4e8ff7" fill-opacity="1"><g><path d="M280 100C280 80.118 263.882 64.321 244 64.321 H76C46 64.321 22 46 22 10 H10 V232C10 251.882 26.118 268 46 268 H244C263.882 268 280 251.898 280 232.016 V100"></path></g></g></g><g id="g-root-cp_6_shape-6_1_1lrryclhjwjy8-fill" data-item-order="-560952" transform="translate(350, 386)"><g id="cp_6_shape-6_1_1lrryclhjwjy8-fill-merged" stroke="none" fill="#95bdff" fill-opacity="1"><g><path d="M10 232 H22 V10 H10 V232"></path></g></g></g><g id="g-root-cp_6_shape-6_3_18gbfz9hjwlj5-fill" data-item-order="-560938" transform="translate(350, 608)"><g id="cp_6_shape-6_3_18gbfz9hjwlj5-fill-merged" stroke="none" fill="#95bdff" fill-opacity="1"><g><path d="M310 100C310 80.118 293.882 64.321 274 64.321 H76C46 64.321 22 46 22 10 H10 V232C10 251.882 26.118 268 46 268 H274C293.882 268 310 251.898 310 232.016 V100"></path></g></g></g><g id="g-root-ic_user_1cz9bj9hk7thj-fill" data-item-order="-2304" transform="translate(476, 686)"><g id="ic_user_1cz9bj9hk7thj-fill-merged" stroke="none" fill="#ffffff" fill-opacity="1"><g><path d="M56 16C56 19.314 53.314 22 50 22C46.686 22 44 19.314 44 16C44 12.686 46.686 10 50 10C53.314 10 56 12.686 56 16 M13 14C13 12.895 13.895 12 15 12 H23C24.105 12 25 12.895 25 14C25 15.105 24.105 16 23 16 H15C13.895 16 13 15.105 13 14 M15 19C13.895 19 13 19.895 13 21C13 22.105 13.895 23 15 23 H23C24.105 23 25 22.105 25 21C25 19.895 24.105 19 23 19 H15 M13 28C13 26.895 13.895 26 15 26 H23C24.105 26 25 26.895 25 28C25 29.105 24.105 30 23 30 H15C13.895 30 13 29.105 13 28 M30 37 H39C39.913 37.001 40.71 36.384 40.938 35.5 H41.578C43.28 35.5 44.961 35.122 46.5 34.394 V54.5C46.5 56.433 48.067 58 50 58C51.933 58 53.5 56.433 53.5 54.5 V28C53.5 26.71 52.789 25.524 51.652 24.915C50.514 24.307 49.134 24.373 48.06 25.088L44.074 27.744C43.335 28.237 42.466 28.5 41.578 28.5 H39.988L41.442 23.412C41.602 22.893 41.468 22.328 41.093 21.935C40.718 21.543 40.16 21.383 39.634 21.519C39.108 21.654 38.697 22.063 38.558 22.588L36.868 28.5 H36C34.894 28.499 33.853 29.021 33.192 29.908C32.531 30.794 32.328 31.94 32.644 33 H15C13.895 33 13 33.895 13 35 V56C13 57.105 13.895 58 15 58 H33C34.105 58 35 57.105 35 56C35 54.895 34.105 54 33 54 H30 V37"></path></g></g></g><g id="g-root-ic_man_909bc5hjwlc5-fill" data-item-order="-2304" transform="translate(128, 242)"><g id="ic_man_909bc5hjwlc5-fill-merged" stroke="none" fill="#ffffff" fill-opacity="1"><g><path d="M44.52 40.66C43.879 43.411 41.338 45.291 38.52 45.1C35.645 45.347 33.033 43.42 32.42 40.6C31.282 40.742 30.154 40.949 29.04 41.22 V43.58L34.5 50.54C35.225 51.547 35.61 52.759 35.6 54 H42L47.16 41.18C46.28 40.96 45.44 40.8 44.52 40.66 M56.34 45.22C54.355 43.802 52.153 42.715 49.82 42 V49.72C49.82 50.604 49.104 51.32 48.22 51.32 H46.62 V54 H57.18C57.655 54 58.04 53.615 58.04 53.14 V48.62C58.045 47.281 57.414 46.019 56.34 45.22 M41.88 36.12C46.638 34.56 49.862 30.127 49.88 25.12 V21.76C49.857 17.691 47.701 13.933 44.2 11.86C43.628 11.507 43.026 11.206 42.4 10.96 H42.26C41.64 10.735 41.005 10.555 40.36 10.42 H40.22C39.56 10.301 38.891 10.241 38.22 10.24C37.549 10.241 36.88 10.301 36.22 10.42 H36C35.319 10.551 34.65 10.738 34 10.98C29.542 12.705 26.591 16.98 26.56 21.76 V25.12C26.571 31.533 31.767 36.729 38.18 36.74C39.439 36.739 40.689 36.53 41.88 36.12 M29.56 25.12 V21.82C31.502 21.504 33.317 20.652 34.8 19.36C37.129 21.289 40.1 22.268 43.12 22.1 H46.78 V25.12C46.933 28.295 45.326 31.297 42.599 32.93C39.872 34.563 36.468 34.563 33.741 32.93C31.014 31.297 29.407 28.295 29.56 25.12 M41.84 26.94C42.815 26.907 43.581 26.096 43.56 25.121C43.538 24.146 42.736 23.371 41.761 23.381C40.786 23.392 40.001 24.185 40 25.16C39.994 25.644 40.188 26.11 40.536 26.447C40.884 26.784 41.356 26.962 41.84 26.94 M36.52 25.16C36.424 24.255 35.66 23.568 34.75 23.568C33.84 23.568 33.076 24.255 32.98 25.16C32.908 25.837 33.229 26.496 33.806 26.858C34.384 27.219 35.116 27.219 35.694 26.858C36.271 26.496 36.592 25.837 36.52 25.16 M40 31.36C40.266 31.269 40.527 31.162 40.78 31.04C41.231 30.786 41.46 30.264 41.34 29.76C41.212 29.256 40.76 28.902 40.24 28.9 H36.66C36.143 28.909 35.694 29.26 35.56 29.76C35.447 30.263 35.674 30.782 36.12 31.04C36.373 31.162 36.634 31.269 36.9 31.36C37.912 31.658 38.988 31.658 40 31.36 M17.18 38.44 V44.28L11.28 51.78C10.381 52.922 10.225 54.482 10.88 55.78C11.502 57.078 12.821 57.897 14.26 57.88 H29.88C31.319 57.897 32.638 57.078 33.26 55.78C33.915 54.482 33.759 52.922 32.86 51.78L26.96 44.26 V38.44 H28C28.361 38.408 28.7 38.252 28.96 38C29.252 37.716 29.417 37.327 29.42 36.92C29.421 36.133 28.806 35.483 28.02 35.44 H16.12C15.334 35.483 14.719 36.133 14.72 36.92C14.711 37.324 14.879 37.711 15.18 37.98C15.454 38.26 15.828 38.419 16.22 38.42 H17.18 M23.96 38.44 V44.78C23.961 45.12 24.074 45.45 24.28 45.72L27.88 50.28 H16.26L19.86 45.72C20.066 45.45 20.179 45.12 20.18 44.78 V38.44 H23.96"></path></g></g></g><g id="g-root-ic_targ_vah7dxhk3mrt-fill" data-item-order="-2304" transform="translate(506, 242)"><g id="ic_targ_vah7dxhk3mrt-fill-merged" stroke="none" fill="#ffffff" fill-opacity="1"><g><path d="M12 17.34C12 21.394 15.286 24.68 19.34 24.68C23.394 24.68 26.68 21.394 26.68 17.34C26.68 13.286 23.394 10 19.34 10C15.286 10 12 13.286 12 17.34 M19.88 42.52C19.875 37.633 21.895 32.963 25.46 29.62C22.699 27.225 18.795 26.661 15.469 28.175C12.143 29.69 10.006 33.005 10 36.66 V44.66 H14.22L15.34 58 H23.34L23.7 53.5C21.227 50.374 19.881 46.506 19.88 42.52 M51.14 38.22 H50.82L48 38C48.622 39.44 48.941 40.992 48.94 42.56C48.927 47.512 45.691 51.879 40.957 53.332C36.222 54.786 31.093 52.987 28.304 48.896C25.514 44.804 25.713 39.373 28.796 35.497C31.878 31.621 37.125 30.203 41.74 32L41.46 28.88C41.43 28.621 41.43 28.359 41.46 28.1C40.154 27.761 38.809 27.593 37.46 27.6C31.057 27.725 25.45 31.928 23.534 38.039C21.618 44.15 23.821 50.802 29.006 54.561C34.192 58.32 41.199 58.345 46.411 54.623C51.622 50.901 53.873 44.264 52 38.14C51.718 38.204 51.429 38.231 51.14 38.22 M41.7 43.26C41.324 45.312 39.493 46.772 37.409 46.682C35.325 46.593 33.626 44.981 33.428 42.905C33.229 40.828 34.591 38.923 36.62 38.44L39.6 35.3C38.946 35.133 38.275 35.045 37.6 35.04C33.469 35.04 30.12 38.389 30.12 42.52C30.12 46.651 33.469 50 37.6 50C41.731 50 45.08 46.651 45.08 42.52C45.076 41.705 44.948 40.896 44.7 40.12L41.7 43.26 M56 27.8L52.92 26.78L51.88 23.68C51.767 23.348 51.492 23.097 51.15 23.016C50.809 22.935 50.45 23.034 50.2 23.28L45.6 27.86C45.178 28.28 44.965 28.867 45.02 29.46L45.28 32.22L36.5 41.48C35.915 42.066 35.915 43.014 36.5 43.6C36.772 43.868 37.138 44.019 37.52 44.02C37.937 44.02 38.336 43.846 38.62 43.54L47.3 34.38L50.14 34.64C50.733 34.695 51.32 34.482 51.74 34.06L56.32 29.48C56.569 29.241 56.68 28.892 56.616 28.553C56.551 28.214 56.319 27.931 56 27.8"></path></g></g></g><g id="g-root-ic_meet_1hjg59hhk0rv1-fill" data-item-order="-2304" transform="translate(158, 686)"><g id="ic_meet_1hjg59hhk0rv1-fill-merged" stroke="none" fill="#ffffff" fill-opacity="1"><g><path d="M41.86 47.08C41.444 46.06 40.282 45.568 39.26 45.98C35.89 47.33 32.13 47.33 28.76 45.98C27.738 45.56 26.569 46.048 26.15 47.07C25.73 48.092 26.218 49.26 27.24 49.68C31.575 51.437 36.425 51.437 40.76 49.68C41.78 49.264 42.272 48.102 41.86 47.08 M41.88 21.42C45.711 24.029 48.003 28.365 48 33C47.997 33.588 47.964 34.175 47.9 34.76C47.767 35.865 48.555 36.868 49.66 37C50.765 37.133 51.768 36.345 51.9 35.24C51.983 34.496 52.016 33.748 52 33C52.003 27.045 49.06 21.475 44.14 18.12C43.551 17.706 42.784 17.64 42.133 17.949C41.482 18.257 41.047 18.892 40.995 19.611C40.943 20.329 41.281 21.02 41.88 21.42 M18.36 36.98C19.452 36.845 20.229 35.853 20.1 34.76C20.07 34.174 20.07 33.586 20.1 33C20.075 28.384 22.327 24.051 26.12 21.42C26.719 21.02 27.057 20.329 27.005 19.611C26.953 18.892 26.518 18.257 25.867 17.949C25.216 17.64 24.449 17.706 23.86 18.12C18.94 21.475 15.997 27.045 16 33C15.997 33.749 16.044 34.497 16.14 35.24C16.275 36.332 17.267 37.109 18.36 36.98 M41.34 29C41.494 29.005 41.642 28.938 41.74 28.82C41.83 28.7 41.867 28.548 41.84 28.4C41.008 24.698 37.722 22.066 33.928 22.061C30.134 22.056 26.842 24.68 26 28.38C25.932 28.519 25.932 28.681 26 28.82C26.098 28.927 26.235 28.992 26.38 29 H41.34 M29 15C29 17.761 31.239 20 34 20C36.761 20 39 17.761 39 15C39 12.239 36.761 10 34 10C31.239 10 29 12.239 29 15 M50 51C46.154 50.97 42.815 53.641 42 57.4C41.97 57.545 42.007 57.697 42.099 57.812C42.192 57.928 42.332 57.997 42.48 58 H57.4C57.552 57.995 57.695 57.93 57.8 57.82C57.86 57.679 57.86 57.521 57.8 57.38C56.994 53.702 53.765 51.061 50 51 M45.06 44C45.06 46.761 47.299 49 50.06 49C52.821 49 55.06 46.761 55.06 44C55.06 41.239 52.821 39 50.06 39C47.299 39 45.06 41.239 45.06 44 M18 51C14.154 50.97 10.815 53.641 10 57.4C9.941 57.534 9.941 57.686 10 57.82C10.133 58.013 10.383 58.088 10.6 58 H25.5C25.656 58.005 25.806 57.936 25.904 57.814C26.002 57.692 26.038 57.532 26 57.38C25.17 53.634 21.837 50.975 18 51 M13.14 44C13.14 46.761 15.379 49 18.14 49C20.901 49 23.14 46.761 23.14 44C23.14 41.239 20.901 39 18.14 39C15.379 39 13.14 41.239 13.14 44"></path></g></g></g><g id="g-root-ic_1_1hxnphk6fws-fill" data-item-order="-2304" transform="translate(491, 464)"><g id="ic_1_1hxnphk6fws-fill-merged" stroke="none" fill="#ffffff" fill-opacity="1"><g><path d="M34.66 20C34.66 22.209 36.451 24 38.66 24C40.869 24 42.66 22.209 42.66 20C42.66 17.791 40.869 16 38.66 16C36.451 16 34.66 17.791 34.66 20 M33.02 32 H44.3C44.631 32.002 44.942 31.841 45.13 31.569C45.318 31.296 45.359 30.949 45.24 30.64C44.272 27.922 41.731 26.079 38.847 26.004C35.962 25.928 33.328 27.636 32.22 30.3C32.151 30.446 32.151 30.614 32.22 30.76C32.424 31.114 32.604 31.482 32.76 31.86C32.813 31.952 32.914 32.007 33.02 32 M54 10 H22C19.791 10 18 11.791 18 14 V23C18 24.105 18.895 25 20 25C21.105 25 22 24.105 22 23 V15C22 14.448 22.448 14 23 14 H53C53.552 14 54 14.448 54 15 V37C54 37.552 53.552 38 53 38 H37C36.139 38 35.375 38.551 35.103 39.368C34.83 40.184 35.111 41.083 35.8 41.6C35.924 41.696 35.997 41.843 36 42 V46C36 47.105 36.895 48 38 48 H45C46.105 48 47 47.105 47 46C47 44.895 46.105 44 45 44 H40.5C40.224 44 40 43.776 40 43.5 V42.5C40 42.224 40.224 42 40.5 42 H54C56.209 42 58 40.209 58 38 V14C58 11.791 56.209 10 54 10 M28.52 46L27.5 45.5C27.273 45.395 27.003 45.482 26.88 45.7L22.84 52C22.76 52.157 22.595 52.251 22.42 52.24C22.248 52.238 22.089 52.147 22 52L18 45.78C17.858 45.574 17.589 45.498 17.36 45.6C16.97 45.773 16.59 45.967 16.22 46.18C12.372 48.426 10.004 52.544 10 57C10 57.552 10.448 58 11 58 H34C34.552 58 35 57.552 35 57C35.012 52.425 32.528 48.207 28.52 46 M17.12 44.38C20.464 46.562 24.817 46.41 28 44C28.195 43.858 28.382 43.704 28.56 43.54C28.668 43.441 28.815 43.397 28.96 43.42C29.107 43.449 29.237 43.535 29.32 43.66C29.552 44.069 29.82 44.458 30.12 44.82C30.276 45.003 30.443 45.177 30.62 45.34C30.974 45.734 31.471 45.972 32 46C32.534 45.998 33.046 45.782 33.42 45.4C34.195 44.62 34.195 43.36 33.42 42.58C33.104 42.256 32.841 41.885 32.64 41.48C31.957 39.92 31.655 38.22 31.76 36.52C31.92 33.033 30.151 29.74 27.155 27.948C24.159 26.157 20.421 26.157 17.425 27.948C14.429 29.74 12.66 33.033 12.82 36.52C12.928 38.182 12.647 39.846 12 41.38C11.793 41.786 11.523 42.158 11.2 42.48C10.558 43.029 10.33 43.922 10.63 44.712C10.931 45.502 11.695 46.017 12.54 46C13.065 45.998 13.567 45.789 13.94 45.42L14.42 44.9C14.727 44.538 15.002 44.15 15.24 43.74C15.321 43.622 15.442 43.537 15.58 43.5C15.731 43.476 15.884 43.52 16 43.62C16.354 43.9 16.729 44.154 17.12 44.38 M22.26 42C19.577 41.996 17.291 40.049 16.86 37.4C16.837 37.267 16.869 37.131 16.948 37.021C17.027 36.912 17.147 36.84 17.28 36.82C17.794 36.736 18.302 36.615 18.8 36.46C19.085 36.328 19.359 36.175 19.62 36C20.545 35.549 21.332 34.858 21.9 34C21.994 33.866 22.147 33.786 22.31 33.786C22.473 33.786 22.626 33.866 22.72 34C23.337 34.784 24.081 35.46 24.92 36C25.178 36.185 25.452 36.346 25.74 36.48C26.208 36.723 26.705 36.905 27.22 37.02C27.352 37.047 27.467 37.127 27.54 37.24C27.592 37.361 27.592 37.499 27.54 37.62C27.025 40.137 24.829 41.958 22.26 42"></path></g></g></g><g id="g-root-ic_mana_dcbyxxhjze2y-fill" data-item-order="-2304" transform="translate(143, 464)"><g id="ic_mana_dcbyxxhjze2y-fill-merged" stroke="none" fill="#ffffff" fill-opacity="1"><g><path d="M56.7 29.36C54.961 27.636 52.159 27.636 50.42 29.36L29.36 50.42C27.626 52.154 27.626 54.966 29.36 56.7C31.094 58.434 33.906 58.434 35.64 56.7L56.7 35.64C58.435 33.906 58.435 31.094 56.7 29.36 M32.5 56.4C31.35 56.408 30.308 55.721 29.862 54.661C29.416 53.6 29.654 52.375 30.465 51.559C31.275 50.743 32.498 50.496 33.562 50.934C34.626 51.373 35.32 52.41 35.32 53.56C35.32 55.121 34.061 56.389 32.5 56.4 M38.64 11.3C36.906 9.565 34.094 9.565 32.36 11.3L11.3 32.36C9.566 34.094 9.566 36.906 11.3 38.64C13.034 40.374 15.846 40.374 17.58 38.64L38.64 17.58C40.364 15.841 40.364 13.039 38.64 11.3 M35.5 17.3C34.348 17.308 33.305 16.619 32.86 15.556C32.415 14.493 32.657 13.267 33.472 12.452C34.287 11.637 35.513 11.395 36.576 11.84C37.639 12.285 38.328 13.328 38.32 14.48C38.298 16.022 37.042 17.26 35.5 17.26 M47.66 20.34C46.831 19.508 45.705 19.041 44.53 19.041C43.355 19.041 42.229 19.508 41.4 20.34L20.34 41.4C18.611 43.129 18.61 45.932 20.339 47.661C22.068 49.39 24.871 49.389 26.6 47.66L47.66 26.6C48.497 25.773 48.968 24.646 48.968 23.47C48.968 22.294 48.497 21.167 47.66 20.34 M34 36.82C32.443 36.82 31.18 35.557 31.18 34C31.18 32.443 32.443 31.18 34 31.18C35.557 31.18 36.82 32.443 36.82 34C36.82 35.557 35.557 36.82 34 36.82"></path></g></g></g><g id="g-root-tx_gerencia_i09n6thjy0hs-fill" data-item-order="0" transform="translate(89, 524)"><g id="tx_gerencia_i09n6thjy0hs-fill-merged" stroke="none" fill="#ffffff" fill-opacity="1"><g><text style="font: bold 15px Roboto, sans-serif; white-space: pre;" transform="translate(88, 22)" font-weight="bold" font-size="15px" font-family="Roboto, sans-serif"><tspan x="-75.83" y="8.92" dominant-baseline="ideographic">Gerencia de Proyectos</tspan></text></g></g></g><g id="g-root-tx_formacin_959411hk51je-fill" data-item-order="0" transform="translate(425, 524)"><g id="tx_formacin_959411hk51je-fill-merged" stroke="none" fill="#ffffff" fill-opacity="1"><g><text style="font: bold 15px Roboto, sans-serif; white-space: pre;" transform="translate(100, 22)" font-weight="bold" font-size="15px" font-family="Roboto, sans-serif"><tspan x="-87.26" y="8.92" dominant-baseline="ideographic">Formación y Capacitación</tspan></text></g></g></g><g id="g-root-tx_gestingi_1ha30ythjzci1-fill" data-item-order="0" transform="translate(77, 560)"><g id="tx_gestingi_1ha30ythjzci1-fill-merged" stroke="none" fill="#ffffff" fill-opacity="1"><g><text style="font: 15px Roboto, sans-serif; white-space: pre;" transform="translate(100, 40)" font-size="15px" font-family="Roboto, sans-serif"><tspan x="-86.03" y="-9.08" dominant-baseline="ideographic">Gestión ágil y rigurosa de </tspan><tspan x="-76.35" y="8.92" dominant-baseline="ideographic">proyectos científicos y </tspan><tspan x="-46.81" y="26.92" dominant-baseline="ideographic">tecnológicos.</tspan></text></g></g></g><g id="g-root-tx_programa_13z8zolhk6ebv-fill" data-item-order="0" transform="translate(413, 560)"><g id="tx_programa_13z8zolhk6ebv-fill-merged" stroke="none" fill="#ffffff" fill-opacity="1"><g><text style="font: 15px Roboto, sans-serif; white-space: pre;" transform="translate(112, 40)" font-size="15px" font-family="Roboto, sans-serif"><tspan x="-90.07" y="-9.08" dominant-baseline="ideographic">Programas especializados </tspan><tspan x="-99.94" y="8.92" dominant-baseline="ideographic">para fortalecer competencias </tspan><tspan x="-73.49" y="26.92" dominant-baseline="ideographic">científicas y técnicas.</tspan></text></g></g></g><g id="g-root-tx_estrateg_1useradhk3lz4-fill" data-item-order="0" transform="translate(440, 338)"><g id="tx_estrateg_1useradhk3lz4-fill-merged" stroke="none" fill="#ffffff" fill-opacity="1"><g><text style="font: 15px Roboto, sans-serif; white-space: pre;" transform="translate(100, 40)" font-size="15px" font-family="Roboto, sans-serif"><tspan x="-76.4" y="-9.08" dominant-baseline="ideographic">Estrategia técnica para </tspan><tspan x="-74.84" y="8.92" dominant-baseline="ideographic">potenciar innovación y </tspan><tspan x="-82.55" y="26.92" dominant-baseline="ideographic">crecimiento empresarial.</tspan></text></g></g></g><g id="g-root-tx_producci_909bc5hk7swe-fill" data-item-order="0" transform="translate(404, 782)"><g id="tx_producci_909bc5hk7swe-fill-merged" stroke="none" fill="#ffffff" fill-opacity="1"><g><text style="font: 15px Roboto, sans-serif; white-space: pre;" transform="translate(106, 40)" font-size="15px" font-family="Roboto, sans-serif"><tspan x="-93.49" y="-9.08" dominant-baseline="ideographic">Producción de documentos </tspan><tspan x="-88.83" y="8.92" dominant-baseline="ideographic">científicos profesionales y </tspan><tspan x="-62.37" y="26.92" dominant-baseline="ideographic">acompañamiento.</tspan></text></g></g></g><g id="g-root-tx_consulto_qter39hk3ldz-fill" data-item-order="0" transform="translate(446, 302)"><g id="tx_consulto_qter39hk3ldz-fill-merged" stroke="none" fill="#ffffff" fill-opacity="1"><g><text style="font: bold 15px Roboto, sans-serif; white-space: pre;" transform="translate(94, 22)" font-weight="bold" font-size="15px" font-family="Roboto, sans-serif"><tspan x="-78.73" y="8.92" dominant-baseline="ideographic">Consultoría Estratégica</tspan></text></g></g></g><g id="g-root-tx_investig_1uonwrphjwkjv-fill" data-item-order="0" transform="translate(62, 302)"><g id="tx_investig_1uonwrphjwkjv-fill-merged" stroke="none" fill="#ffffff" fill-opacity="1"><g><text style="font: bold 15px Roboto, sans-serif; white-space: pre;" transform="translate(100, 22)" font-weight="bold" font-size="15px" font-family="Roboto, sans-serif"><tspan x="-87.28" y="8.92" dominant-baseline="ideographic">Investigación y Desarrollo</tspan></text></g></g></g><g id="g-root-tx_subcontr_1d1r7vphk0tmz-fill" data-item-order="0" transform="translate(80, 746)"><g id="tx_subcontr_1d1r7vphk0tmz-fill-merged" stroke="none" fill="#ffffff" fill-opacity="1"><g><text style="font: bold 15px Roboto, sans-serif; white-space: pre;" transform="translate(112, 22)" font-weight="bold" font-size="15px" font-family="Roboto, sans-serif"><tspan x="-97.17" y="8.92" dominant-baseline="ideographic">Subcontratación de Expertos</tspan></text></g></g></g><g id="g-root-tx_redaccin_1cxdw9xhk7uh9-fill" data-item-order="0" transform="translate(428, 746)"><g id="tx_redaccin_1cxdw9xhk7uh9-fill-merged" stroke="none" fill="#ffffff" fill-opacity="1"><g><text style="font: bold 15px Roboto, sans-serif; white-space: pre;" transform="translate(82, 22)" font-weight="bold" font-size="15px" font-family="Roboto, sans-serif"><tspan x="-69.4" y="8.92" dominant-baseline="ideographic">Redacción Científica</tspan></text></g></g></g><g id="g-root-tx_investig_94mmxxhk0s24-fill" data-item-order="0" transform="translate(74, 782)"><g id="tx_investig_94mmxxhk0s24-fill-merged" stroke="none" fill="#ffffff" fill-opacity="1"><g><text style="font: 15px Roboto, sans-serif; white-space: pre;" transform="translate(118, 28)" font-size="15px" font-family="Roboto, sans-serif"><tspan x="-105.52" y="-0.08" dominant-baseline="ideographic">Investigadores calificados para </tspan><tspan x="-103.84" y="17.92" dominant-baseline="ideographic">impulsar proyectos científicos.</tspan></text></g></g></g><g id="g-root-tx_innovaci_zmjuzphjwlc4-fill" data-item-order="0" transform="translate(62, 338)"><g id="tx_innovaci_zmjuzphjwlc4-fill-merged" stroke="none" fill="#ffffff" fill-opacity="1"><g><text style="font: 15px Roboto, sans-serif; white-space: pre;" transform="translate(100, 40)" font-size="15px" font-family="Roboto, sans-serif"><tspan x="-70.42" y="-9.08" dominant-baseline="ideographic">Innovación científica </tspan><tspan x="-84.7" y="8.92" dominant-baseline="ideographic">aplicada para soluciones </tspan><tspan x="-68.67" y="26.92" dominant-baseline="ideographic">tecnológicas reales.</tspan></text></g></g></g><g id="g-root-cp_5_shape-5_vbq5k5hjv7d2-stroke" data-item-order="-561120" transform="translate(314.302734375, 104)"><g id="cp_5_shape-5_vbq5k5hjv7d2-stroke" fill="none" stroke-linecap="round" stroke-linejoin="round" stroke-miterlimit="4" stroke="#ffffff" stroke-width="1" stroke-opacity="1"><g><path d="M 15.697266 292L 15.697266 160M 27.697266 292L 27.697266 160M 15.6969 160L 15.6969 28.1909L 11.0169 28.1909C 10.2369 28.1909 9.7469 27.3409 10.1369 26.6609L 20.8599 10.4483C 21.2561 9.8494 22.1356 9.8508 22.5298 10.451L 33.1769 26.6609C 33.5769 27.341 33.0869 28.191 32.2969 28.191L 27.6969 28.191L 27.6969 160"></path></g></g></g><g id="g-root-cp_1_shape-1_mgpmedhjv4zz-stroke" data-item-order="-561110" transform="translate(31.999969482421875, 103.81640625)"><g id="cp_1_shape-1_mgpmedhjv4zz-stroke" fill="none" stroke-linecap="round" stroke-linejoin="round" stroke-miterlimit="4" stroke="#ffffff" stroke-width="1" stroke-opacity="1"><g><path d="M 10.000031 160.1836C 10.000031 140.3014 26.117731 124.3209 45.999931 124.3209L 172.000031 124.3209C 213.070031 124.3209 238.000031 94.1909 238.000031 54.8509L 238.000031 28.1909L 233.320031 28.1909C 232.540031 28.1909 232.050031 27.3409 232.440031 26.6609L 243.163131 10.4483C 243.559231 9.8494 244.438731 9.8508 244.833031 10.451L 255.480031 26.6609C 255.880031 27.341 255.390031 28.191 254.600031 28.191L 250.000031 28.191L 250.000031 160.1836M 250.000131 292.183594C 250.000131 312.065794 233.882331 328.191394 214.000131 328.191394L 45.999931 328.191294C 26.117731 328.191294 10.000031 312.081294 10.000031 292.199194L 10.000031 292.183594M 250.000138 292.183594L 250.000138 160.183594M 10.000031 160.183594L 10.000031 292.183594"></path></g></g></g><g id="g-root-cp_3_shape-3_dl2m5hhjv6kg-stroke" data-item-order="-561096" transform="translate(284.302734375, 104)"><g id="cp_3_shape-3_dl2m5hhjv6kg-stroke" fill="none" stroke-linecap="round" stroke-linejoin="round" stroke-miterlimit="4" stroke="#ffffff" stroke-width="1" stroke-opacity="1"><g><path d="M 15.697266 292L 15.697266 160M 27.697266 292L 27.697266 160M 15.6969 160L 15.6969 28.1909L 11.0169 28.1909C 10.2369 28.1909 9.7469 27.3409 10.1369 26.6609L 20.8599 10.4483C 21.2561 9.8494 22.1356 9.8508 22.5298 10.451L 33.1769 26.6609C 33.5769 27.341 33.0869 28.191 32.2969 28.191L 27.6969 28.191L 27.6969 160"></path></g></g></g><g id="g-root-cp_5_shape-5_1_8zhhhjwjk1-stroke" data-item-order="-561074" transform="translate(320, 386)"><g id="cp_5_shape-5_1_8zhhhjwjk1-stroke" fill="none" stroke-linecap="round" stroke-linejoin="round" stroke-miterlimit="4" stroke="#ffffff" stroke-width="1" stroke-opacity="1"><g><path d="M 10 232L 10 10.000004M 22 232L 22 10.000004"></path></g></g></g><g id="g-root-cp_3_shape-3_2_1lpwj39hjwkxu-stroke" data-item-order="-561068" transform="translate(32.00001525878906, 386)"><g id="cp_3_shape-3_2_1lpwj39hjwkxu-stroke" fill="none" stroke-linecap="round" stroke-linejoin="round" stroke-miterlimit="4" stroke="#ffffff" stroke-width="1" stroke-opacity="1"><g><path d="M 279.999985 231.978546L 279.999985 100M 9.999985 100L 9.999985 231.978546L 9.999985 232M 280.000085 232.007786C 280.000085 251.889986 263.882285 268.007786 244.000085 268.007786L 45.999885 268.007686C 26.117685 268.007686 9.999985 251.905486 9.999985 232.023386L 9.999985 232.007786M 267.999985 10C 267.999985 46 243.999985 64.3209 213.999985 64.3209L 45.999885 64.3209C 26.117685 64.3209 9.999985 80.1178 9.999985 100M 279.999985 100L 279.999985 10"></path></g></g></g><g id="g-root-cp_5_shape-5_3_18f2ht1hjwjcz-stroke" data-item-order="-561042" transform="translate(32.00001525878906, 608)"><g id="cp_5_shape-5_3_18f2ht1hjwjcz-stroke" fill="none" stroke-linecap="round" stroke-linejoin="round" stroke-miterlimit="4" stroke="#ffffff" stroke-width="1" stroke-opacity="1"><g><path d="M 297.999985 10C 297.999985 45.8782 273.999985 64.1372 243.999985 64.1372L 45.999885 64.1372C 26.117685 64.1372 9.999985 80.1851 9.999985 100M 309.999985 100L 309.999985 10M 309.999985 208L 309.999985 100M 9.999985 100L 9.999985 208M 310.000085 208C 310.000085 227.8822 293.882385 244.0078 274.000085 244.0078L 45.999885 244.0077C 26.117785 244.0077 9.999985 227.8821 9.999985 208"></path></g></g></g><g id="g-root-cp_2_shape-2_v3lzfphjwkxw-stroke" data-item-order="-561016" transform="translate(404.3775634765625, 103.81640625)"><g id="cp_2_shape-2_v3lzfphjwkxw-stroke" fill="none" stroke-linecap="round" stroke-linejoin="round" stroke-miterlimit="4" stroke="#ffffff" stroke-width="1" stroke-opacity="1"><g><path d="M 255.622416 160.1836C 255.622416 140.3014 239.504716 124.3209 219.622616 124.3209L 93.622416 124.3209C 52.552416 124.3209 27.622416 94.1909 27.622416 54.8509L 27.622416 28.1909L 32.302416 28.1909C 33.082416 28.1909 33.572416 27.3409 33.182416 26.6609L 22.459416 10.4483C 22.063216 9.8494 21.183716 9.8508 20.789516 10.451L 10.142416 26.6609C 9.742416 27.341 10.232416 28.191 11.022416 28.191L 15.622416 28.191L 15.622416 160.1836M 15.622437 292.183594C 15.622437 312.065794 31.740137 328.183594 51.622437 328.183594L 219.622637 328.183494C 239.504737 328.183494 255.622437 312.081294 255.622437 292.199194L 255.622437 292.183594M 15.62233 292.183594L 15.62233 160.183594M 255.62233 160.183594L 255.62233 292.183594"></path></g></g></g><g id="g-root-cp_4_shape-4_hsry5hhjwjd1-stroke" data-item-order="-561002" transform="translate(374.382568359375, 104)"><g id="cp_4_shape-4_hsry5hhjwjd1-stroke" fill="none" stroke-linecap="round" stroke-linejoin="round" stroke-miterlimit="4" stroke="#ffffff" stroke-width="1" stroke-opacity="1"><g><path d="M 27.622071 160L 27.622071 292M 15.622071 292L 15.622071 160M 27.6224 160L 27.6224 28.1909L 32.3024 28.1909C 33.0824 28.1909 33.5724 27.3409 33.1824 26.6609L 22.4594 10.4483C 22.0632 9.8494 21.1837 9.8508 20.7895 10.451L 10.1424 26.6609C 9.7424 27.341 10.2324 28.191 11.0224 28.191L 15.6224 28.191L 15.6224 160"></path></g></g></g><g id="g-root-cp_6_shape-6_8x4xwlhjwk5q-stroke" data-item-order="-560992" transform="translate(344.382568359375, 104)"><g id="cp_6_shape-6_8x4xwlhjwk5q-stroke" fill="none" stroke-linecap="round" stroke-linejoin="round" stroke-miterlimit="4" stroke="#ffffff" stroke-width="1" stroke-opacity="1"><g><path d="M 27.622071 160L 27.622071 292M 15.622071 292L 15.622071 160M 27.6224 160L 27.6224 28.1909L 32.3024 28.1909C 33.0824 28.1909 33.5724 27.3409 33.1824 26.6609L 22.4594 10.4483C 22.0632 9.8494 21.1837 9.8508 20.7895 10.451L 10.1424 26.6609C 9.7424 27.341 10.2324 28.191 11.0224 28.191L 15.6224 28.191L 15.6224 160"></path></g></g></g><g id="g-root-cp_4_shape-4_2_1umshidhjwljj-stroke" data-item-order="-560970" transform="translate(380, 386)"><g id="cp_4_shape-4_2_1umshidhjwljj-stroke" fill="none" stroke-linecap="round" stroke-linejoin="round" stroke-miterlimit="4" stroke="#ffffff" stroke-width="1" stroke-opacity="1"><g><path d="M 22 10C 22 46 46 64.3209 76 64.3209L 244.0002 64.3209C 263.8824 64.3209 280 80.1178 280 100M 10 100L 10 10M 10 231.999969L 10 100M 280 100L 280 231.999969M 10 231.999969C 10 251.882169 26.1177 268.007769 45.9999 268.007769L 244.0001 268.007669C 263.8823 268.007669 280 251.897669 280.0001 232.015569L 280.0001 231.999969"></path></g></g></g><g id="g-root-cp_6_shape-6_1_1lrryclhjwjy8-stroke" data-item-order="-560952" transform="translate(350, 386)"><g id="cp_6_shape-6_1_1lrryclhjwjy8-stroke" fill="none" stroke-linecap="round" stroke-linejoin="round" stroke-miterlimit="4" stroke="#ffffff" stroke-width="1" stroke-opacity="1"><g><path d="M 22 10.000004L 22 232M 10 232L 10 10.000004"></path></g></g></g><g id="g-root-cp_6_shape-6_3_18gbfz9hjwlj5-stroke" data-item-order="-560938" transform="translate(350, 608)"><g id="cp_6_shape-6_3_18gbfz9hjwlj5-stroke" fill="none" stroke-linecap="round" stroke-linejoin="round" stroke-miterlimit="4" stroke="#ffffff" stroke-width="1" stroke-opacity="1"><g><path d="M 22 10C 22 46 46 64.3209 76 64.3209L 274 64.3209C 293.8822 64.3209 310 80.1178 310 100M 10 100L 10 10M 10 232L 10 100M 310 100L 310 232M 10 232C 10 251.8822 26.1177 268.0078 45.9999 268.0078L 274.0001 268.0077C 293.8823 268.0077 310 251.8977 310.0001 232.0156L 310.0001 232"></path></g></g></g><g id="g-root-ic_user_1cz9bj9hk7thj-stroke" data-item-order="-2304" transform="translate(476, 686)"></g><g id="g-root-ic_man_909bc5hjwlc5-stroke" data-item-order="-2304" transform="translate(128, 242)"></g><g id="g-root-ic_targ_vah7dxhk3mrt-stroke" data-item-order="-2304" transform="translate(506, 242)"></g><g id="g-root-ic_meet_1hjg59hhk0rv1-stroke" data-item-order="-2304" transform="translate(158, 686)"></g><g id="g-root-ic_1_1hxnphk6fws-stroke" data-item-order="-2304" transform="translate(491, 464)"></g><g id="g-root-ic_mana_dcbyxxhjze2y-stroke" data-item-order="-2304" transform="translate(143, 464)"></g><g id="g-root-tx_gerencia_i09n6thjy0hs-stroke" data-item-order="0" transform="translate(89, 524)"></g><g id="g-root-tx_formacin_959411hk51je-stroke" data-item-order="0" transform="translate(425, 524)"></g><g id="g-root-tx_gestingi_1ha30ythjzci1-stroke" data-item-order="0" transform="translate(77, 560)"></g><g id="g-root-tx_programa_13z8zolhk6ebv-stroke" data-item-order="0" transform="translate(413, 560)"></g><g id="g-root-tx_estrateg_1useradhk3lz4-stroke" data-item-order="0" transform="translate(440, 338)"></g><g id="g-root-tx_producci_909bc5hk7swe-stroke" data-item-order="0" transform="translate(404, 782)"></g><g id="g-root-tx_consulto_qter39hk3ldz-stroke" data-item-order="0" transform="translate(446, 302)"></g><g id="g-root-tx_investig_1uonwrphjwkjv-stroke" data-item-order="0" transform="translate(62, 302)"></g><g id="g-root-tx_subcontr_1d1r7vphk0tmz-stroke" data-item-order="0" transform="translate(80, 746)"></g><g id="g-root-tx_redaccin_1cxdw9xhk7uh9-stroke" data-item-order="0" transform="translate(428, 746)"></g><g id="g-root-tx_investig_94mmxxhk0s24-stroke" data-item-order="0" transform="translate(74, 782)"></g><g id="g-root-tx_innovaci_zmjuzphjwlc4-stroke" data-item-order="0" transform="translate(62, 338)"></g></g></g><path id="w4jtigldnzfnu" d="M65.283 12.757a.35.35 0 0 0 .584.157l5.203-5.141-6.183 3.523.396 1.461zm-2.216-11.7a.35.35 0 0 0-.522.305v3.111l3.276-1.868-2.754-1.548zm3.728 2.105l-4.25 2.421v2.445l6.391-3.644-2.141-1.222zm4.708 3.303a.35.35 0 0 0 0-.609l-1.592-.9-7.365 4.199v1.782a.35.35 0 0 0 .523.305l8.435-4.777z M44.542 2.513c0-.433.355-.783.792-.783s.792.35.792.783-.355.783-.792.783-.792-.35-.792-.783zm59.171 0c0-.433.355-.783.792-.783s.792.35.792.783-.355.783-.792.783-.792-.35-.792-.783zm-85.951 7.636h-1.27v-.487c-.276.201-.864.609-1.881.609-1.202 0-2.274-.794-2.137-2.078.118-1.106 1.153-1.584 1.848-1.727l2.17-.345c0-.539-.29-.956-1.064-1.006s-1.21.305-1.571 1.017l-1.124-.605c1.218-2.631 5.029-1.764 5.029.414v4.207zm-1.27-2.86c.006.396-.062 1.112-.819 1.59-.587.37-1.841.299-1.903-.395-.049-.555.461-.791.906-.898l1.816-.297zm72.662 2.86h-1.27v-.487c-.276.201-.864.609-1.881.609-1.202 0-2.274-.794-2.137-2.078.118-1.106 1.153-1.584 1.848-1.727l2.17-.345c0-.539-.29-.956-1.064-1.006s-1.21.305-1.571 1.017l-1.124-.605c1.218-2.631 5.029-1.764 5.029.414v4.207zm-1.27-2.86c.006.396-.062 1.112-.82 1.59-.587.37-1.841.299-1.903-.395-.049-.555.461-.791.906-.898l1.816-.297zM99.096 10.149H97.85v-8.45h1.246v4.895l2.68-2.559h1.738l-2.633 2.535 2.715 3.578h-1.556l-2.077-2.707-.867.844v1.863zm6.053-6.114h-1.255v6.113h1.255V4.035zm-59.2 0h-1.255v6.113h1.255V4.035zm5.584 6.113V1.697h1.255v2.695c.361-.346 1-.485 1.47-.485 1.452 0 2.477 1.082 2.457 2.448v3.792h-1.27v-3.68c0-.408-.214-1.339-1.315-1.339-.968 0-1.342.756-1.342 1.339v3.681h-1.255zm-4.76-4.894V4.039h.621a.45.45 0 0 0 .45-.45v-.855h1.251v1.305h1.309v1.215h-1.309v3.109c0 .293.105.664.648.664.365 0 .531-.035.736-.07v1.137s-.361.113-.857.113c-1.398 0-1.777-1.051-1.777-1.788V5.254h-1.071zM36.528 4.039h-1.394l2.191 6.106h1.125l1.234-3.918 1.238 3.918h1.129l2.188-6.106h-1.383l-1.359 3.93-1.256-3.93h-1.124l-1.242 3.957-1.348-3.957zM26.212 7.141c-.02 1.566 1.187 3.129 3.223 3.129 1.566 0 2.383-.918 2.734-1.719L31.172 8c-.315.399-.801 1.094-1.738 1.094-1.145 0-1.825-.781-1.891-1.52h4.625c.074-.284.148-.995-.03-1.559-.336-1.064-1.221-2.102-2.839-2.102s-3.088 1.152-3.088 3.227zm1.363-.75h3.348c-.055-.43-.566-1.301-1.623-1.301a1.79 1.79 0 0 0-1.725 1.301zm-8.758.75c.038 1.758 1.277 3.133 3.145 3.133 1.074 0 1.723-.477 1.961-.672v.547h1.242V1.703h-1.258v2.888c-.414-.36-1.062-.68-1.93-.68-1.91 0-3.198 1.473-3.16 3.23zm1.309-.08c0 1.119.723 1.978 1.836 1.978a1.88 1.88 0 0 0 1.94-1.904c0-1.371-1.011-1.99-1.972-1.99s-1.805.798-1.805 1.916zm76.683-.028C96.771 5.275 95.532 3.9 93.664 3.9c-1.074 0-1.723.477-1.961.672v-.547h-1.242v8.22h1.258V9.583c.414.36 1.063.68 1.93.68 1.91 0 3.198-1.473 3.16-3.23zm-1.309.08c0-1.119-.723-1.978-1.836-1.978a1.88 1.88 0 0 0-1.94 1.904c0 1.371 1.011 1.99 1.972 1.99S95.5 8.231 95.5 7.113zM106.441 10.173V4.036h1.254v.382c.361-.346 1-.485 1.47-.485 1.452 0 2.477 1.082 2.457 2.448v3.792h-1.27V6.492c0-.408-.214-1.339-1.315-1.339-.969 0-1.342.756-1.342 1.339v3.681h-1.254zm-30.383-.021V1.824h1.084l4.215 5.777V1.824h1.32v8.328h-1.094l-4.207-5.796v5.796h-1.319zM5.24 10.149H4V2.377h1.014l2.664 3.597 2.654-3.592h1.03v7.766h-1.256V4.762L7.678 8.068 5.24 4.742v5.407z" transform="translate(566, 932)" fill="#80808088" stroke="none"></path></svg>